<?xml version="1.0" encoding="UTF-8" standalone="no"?>
<!-- Uploaded to: SVG Repo, www.svgrepo.com, Generator: SVG Repo Mixer Tools -->

<svg
   width="800px"
   height="800px"
   viewBox="0 0 192 192"
   fill="none"
   version="1.1"
   id="svg190"
   sodipodi:docname="airpack.svg"
   inkscape:version="1.2.1 (9c6d41e, 2022-07-14)"
   xmlns:inkscape="http://www.inkscape.org/namespaces/inkscape"
   xmlns:sodipodi="http://sodipodi.sourceforge.net/DTD/sodipodi-0.dtd"
   xmlns="http://www.w3.org/2000/svg"
   xmlns:svg="http://www.w3.org/2000/svg">
  <defs
     id="defs194">
  </defs>
  <sodipodi:namedview
     id="namedview192"
     pagecolor="#ffffff"
     bordercolor="#000000"
     borderopacity="0.25"
     inkscape:showpageshadow="2"
     inkscape:pageopacity="0.0"
     inkscape:pagecheckerboard="0"
     inkscape:deskcolor="#d1d1d1"
     showgrid="false"
     inkscape:zoom="0.8423352"
     inkscape:cx="382.27062"
     inkscape:cy="493.86515"
     inkscape:window-width="1728"
     inkscape:window-height="1080"
     inkscape:window-x="0"
     inkscape:window-y="37"
     inkscape:window-maximized="0"
     inkscape:current-layer="svg190" />
  <g
     id="g4562"
     clip-path="url(#clipPath29083)"
     transform="matrix(5.7169031,0,0,-5.2412305,-4098.2135,2982.0876)">
    <g
       clip-path="url(#clipPath2240)"
       id="g4560">
      <path
         d="m 744.2941,552.0585 c -0.002,0.561 -0.476,1.04 -1.042,1.054 -0.598,0.015 -1.081,-0.462 -1.078,-1.065 0.002,-0.584 0.445,-1.036 1.025,-1.049 0.594,-0.014 1.098,0.474 1.095,1.06 m -19.232,0.024 c -0.014,0.578 -0.475,1.029 -1.05,1.03 -0.589,0.001 -1.088,-0.509 -1.068,-1.09 0.02,-0.563 0.499,-1.024 1.066,-1.025 0.607,0 1.068,0.475 1.052,1.085 m 9.811,9.493 c -0.264,1.178 -0.518,2.364 -0.809,3.54 -0.035,0.142 -0.257,0.299 -0.415,0.329 -0.132,0.025 -0.406,-0.1 -0.432,-0.205 -0.308,-1.225 -0.581,-2.46 -0.856,-3.664 z m -15.499,-4.998 c 3.171,-0.465 6.287,-0.923 9.48,-1.391 v 2.506 h -0.631 c -2.389,0 -4.78,-0.052 -7.167,0.027 -0.898,0.03 -1.34,-0.338 -1.682,-1.142 m 19.019,1.115 v -2.555 c 3.207,0.488 6.332,0.964 9.473,1.441 -0.36,0.865 -0.873,1.272 -1.774,1.129 -0.511,-0.081 -1.045,-0.015 -1.569,-0.015 z m -0.872,-1.546 c -0.032,1.211 -0.365,2.294 -1.141,3.213 -1.317,1.562 -3.425,1.777 -4.996,0.518 -2.269,-1.818 -2.184,-5.768 0.161,-7.491 1.447,-1.063 3.346,-0.894 4.631,0.42 0.912,0.933 1.29,2.083 1.345,3.34 m 6.24,-1.165 c -0.16,-0.612 -0.048,-0.967 0.531,-1.251 0.794,-0.39 1.114,-1.379 0.872,-2.228 -0.25,-0.872 -1.084,-1.494 -1.975,-1.472 -0.908,0.023 -1.685,0.651 -1.913,1.546 -0.22,0.863 0.135,1.781 0.939,2.197 0.443,0.229 0.671,0.463 0.439,1.037 -1.008,-0.147 -2.033,-0.343 -3.068,-0.434 -0.951,-0.083 -1.565,-0.405 -2.069,-1.327 -0.875,-1.603 -2.363,-2.434 -4.238,-2.286 -1.865,0.147 -3.128,1.227 -3.915,2.865 -0.214,0.443 -0.468,0.606 -0.932,0.663 -1.284,0.155 -2.561,0.363 -3.843,0.55 -0.19,-0.529 -0.082,-0.811 0.396,-1.049 0.845,-0.421 1.205,-1.346 0.97,-2.238 -0.235,-0.891 -1.026,-1.517 -1.929,-1.524 -0.872,-0.007 -1.677,0.587 -1.94,1.434 -0.269,0.866 0.089,1.815 0.868,2.299 0.616,0.382 0.616,0.382 0.542,1.241 -1.469,0.218 -2.955,0.439 -4.441,0.66 -0.145,0.022 -0.291,0.037 -0.435,0.064 -0.695,0.135 -0.813,0.413 -0.42,0.983 0.012,0.017 0.027,0.032 0.036,0.051 0.754,1.551 1.926,2.088 3.685,1.946 2.252,-0.181 4.53,-0.035 6.797,-0.052 0.398,-0.003 0.627,0.101 0.845,0.463 0.298,0.497 0.657,0.993 1.101,1.355 0.461,0.375 0.675,0.803 0.791,1.355 0.275,1.313 0.605,2.614 0.873,3.928 0.1,0.49 0.335,0.656 0.817,0.646 1.917,-0.041 1.524,0.244 1.969,-1.565 0.28,-1.139 0.503,-2.293 0.79,-3.43 0.065,-0.259 0.269,-0.493 0.446,-0.71 0.447,-0.549 0.958,-1.051 1.358,-1.632 0.209,-0.304 0.398,-0.409 0.746,-0.408 2.812,0.011 5.625,-0.005 8.437,0.016 0.518,0.004 0.872,-0.142 1.148,-0.586 0.288,-0.462 0.641,-0.882 0.959,-1.326 0.449,-0.627 0.332,-0.925 -0.442,-1.048 -1.491,-0.239 -2.985,-0.454 -4.478,-0.679 -0.101,-0.015 -0.201,-0.034 -0.317,-0.054"
         style="fill:#0a2240;fill-opacity:1;fill-rule:nonzero;stroke:none"
         id="path4554" />
      <path
         d="m 734.255,548.166 h -1.274 v -1.011 h 1.274 z m 3.283,-6.562 h -1.25 v -1.013 h 1.25 z m -6.577,0.006 h -1.248 v -1.018 h 1.248 z m -0.07,6.597 v -5.544 h 5.458 v 5.525 h -1.098 c 0,-0.635 0.007,-1.238 -0.002,-1.841 -0.011,-0.731 -0.345,-0.94 -0.936,-0.518 -0.501,0.357 -0.884,0.361 -1.387,0.001 -0.591,-0.423 -0.927,-0.215 -0.939,0.513 -0.009,0.619 -0.002,1.239 -0.002,1.864 z m 7.639,-6.557 c 0,-0.621 0.006,-1.239 -0.002,-1.857 -0.01,-0.734 -0.342,-0.949 -0.926,-0.533 -0.495,0.353 -0.876,0.381 -1.384,0.015 -0.618,-0.445 -0.943,-0.23 -0.952,0.554 -0.007,0.581 -10e-4,1.162 -10e-4,1.771 h -1.095 v -5.509 h 5.466 v 5.559 z m -5.447,-0.052 h -1.111 c 0,-0.628 0.006,-1.212 -0.002,-1.796 -0.011,-0.74 -0.348,-0.967 -0.921,-0.546 -0.526,0.387 -0.925,0.352 -1.437,-0.012 -0.557,-0.395 -0.891,-0.182 -0.903,0.513 -0.011,0.621 -0.003,1.242 -0.003,1.863 h -1.11 v -5.536 h 5.487 z m 4.312,1 c 0.859,0 1.673,-0.019 2.486,0.007 0.562,0.017 0.796,-0.195 0.79,-0.772 -0.018,-1.994 -0.015,-3.988 -0.001,-5.982 0.003,-0.533 -0.198,-0.754 -0.743,-0.752 -4.199,0.012 -8.397,0.013 -12.596,-0.001 -0.584,-0.002 -0.771,0.239 -0.766,0.793 0.018,1.973 0.022,3.947 -0.002,5.92 -0.007,0.616 0.25,0.816 0.832,0.795 0.793,-0.03 1.587,-0.008 2.447,-0.008 0,1.023 0,1.962 0,2.901 0,0.986 0.011,1.973 -0.004,2.96 -0.008,0.507 0.207,0.723 0.714,0.721 2.036,-0.01 4.072,-0.012 6.109,0.001 0.543,0.003 0.744,-0.232 0.739,-0.762 -0.015,-1.679 -0.006,-3.359 -0.005,-5.038 z"
         style="fill:#0a2240;fill-opacity:1;fill-rule:nonzero;stroke:none"
         id="path4556" />
      <path
         d="m 735.1358,556.3705 c -0.296,1.181 -0.296,1.18 -1.332,1.148 -0.146,-0.004 -0.292,-0.002 -0.439,0.004 -0.958,0.038 -0.959,0.039 -1.218,-0.905 -0.011,-0.04 -0.009,-0.083 -0.024,-0.247 z m -1.455,-1.158 c -0.727,0.123 -1.387,0.227 -2.045,0.348 -0.509,0.095 -0.714,0.376 -0.536,0.903 0.186,0.555 0.345,1.12 0.51,1.683 0.119,0.408 0.338,0.521 0.792,0.479 0.803,-0.074 1.621,-0.069 2.425,-0.003 0.406,0.034 0.659,-0.02 0.779,-0.408 0.192,-0.62 0.363,-1.246 0.555,-1.866 0.128,-0.415 -0.044,-0.666 -0.432,-0.75 -0.692,-0.15 -1.393,-0.264 -2.048,-0.386"
         style="fill:#0a2240;fill-opacity:1;fill-rule:nonzero;stroke:none"
         id="path4558" />
    </g>
  </g>
</svg>
