<?xml version="1.0" encoding="UTF-8" standalone="no"?>
<!-- Uploaded to: SVG Repo, www.svgrepo.com, Generator: SVG Repo Mixer Tools -->

<svg
   width="800px"
   height="800px"
   viewBox="0 0 192 192"
   fill="none"
   version="1.1"
   id="svg190"
   sodipodi:docname="box.svg"
   inkscape:version="1.2.1 (9c6d41e, 2022-07-14)"
   xmlns:inkscape="http://www.inkscape.org/namespaces/inkscape"
   xmlns:sodipodi="http://sodipodi.sourceforge.net/DTD/sodipodi-0.dtd"
   xmlns="http://www.w3.org/2000/svg"
   xmlns:svg="http://www.w3.org/2000/svg">
  <defs
     id="defs194">
  </defs>
  <sodipodi:namedview
     id="namedview192"
     pagecolor="#ffffff"
     bordercolor="#000000"
     borderopacity="0.25"
     inkscape:showpageshadow="2"
     inkscape:pageopacity="0.0"
     inkscape:pagecheckerboard="0"
     inkscape:deskcolor="#d1d1d1"
     showgrid="false"
     inkscape:zoom="0.8423352"
     inkscape:cx="382.27062"
     inkscape:cy="493.86515"
     inkscape:window-width="1728"
     inkscape:window-height="1080"
     inkscape:window-x="0"
     inkscape:window-y="37"
     inkscape:window-maximized="0"
     inkscape:current-layer="svg190" />
  <g
     id="g4496"
     clip-path="url(#clipPath29107)"
     transform="matrix(5.5885549,0,0,-5.7114055,-3287.2291,3224.5567)">
    <g
       clip-path="url(#clipPath2156)"
       id="g4494">
      <path
         d="m 611.0336,552.8743 c -0.411,-0.314 -0.943,-0.518 -0.974,-0.781 -0.108,-0.921 -0.042,-1.862 -0.042,-2.795 0.057,-0.032 0.113,-0.065 0.169,-0.097 0.283,0.244 0.777,0.464 0.808,0.737 0.103,0.91 0.039,1.838 0.039,2.936 m -0.588,0.666 c -0.183,0.105 -0.359,0.214 -0.541,0.31 -2.681,1.408 -5.375,2.792 -8.035,4.238 -0.615,0.334 -0.984,0.135 -1.448,-0.255 2.847,-1.493 5.661,-2.939 8.44,-4.449 0.615,-0.334 1.069,-0.323 1.584,0.156 m -1.805,-1.008 c -3.064,1.606 -6.014,3.155 -8.969,4.694 -0.122,0.064 -0.321,0.106 -0.43,0.051 -0.989,-0.498 -1.966,-1.019 -2.963,-1.542 0.076,-0.085 0.096,-0.125 0.127,-0.141 2.918,-1.533 5.835,-3.066 8.758,-4.587 0.132,-0.069 0.351,-0.097 0.475,-0.035 0.968,0.483 1.922,0.994 3.002,1.56 m 0.514,-0.728 c -1.093,-0.572 -2.107,-1.089 -3.1,-1.642 -0.114,-0.064 -0.158,-0.332 -0.161,-0.506 -0.015,-0.971 -0.007,-1.943 -0.007,-2.914 -0.001,-0.797 0.02,-1.594 -0.017,-2.389 -0.009,-0.189 -0.181,-0.405 -0.338,-0.534 -0.063,-0.051 -0.353,0.056 -0.427,0.167 -0.097,0.145 -0.11,0.365 -0.111,0.553 -0.007,1.69 -0.014,3.38 0.003,5.071 0.004,0.357 -0.104,0.549 -0.429,0.717 -2.791,1.447 -5.57,2.915 -8.355,4.374 -0.144,0.076 -0.302,0.127 -0.49,0.205 -0.016,-0.158 -0.033,-0.252 -0.033,-0.345 -0.002,-3.556 0.006,-7.111 -0.012,-10.666 -0.002,-0.393 0.191,-0.539 0.483,-0.691 2.77,-1.444 5.536,-2.896 8.304,-4.345 0.148,-0.077 0.305,-0.14 0.492,-0.225 0.014,0.146 0.031,0.239 0.031,0.332 0.002,1.126 -0.019,2.254 0.024,3.379 0.007,0.188 0.292,0.365 0.449,0.546 0.142,-0.177 0.371,-0.34 0.405,-0.536 0.066,-0.377 0.021,-0.774 0.021,-1.162 0,-0.84 0,-1.68 0,-2.58 0.169,0.072 0.241,0.096 0.307,0.13 2.87,1.504 5.736,3.015 8.615,4.504 0.349,0.181 0.384,0.419 0.383,0.749 -0.007,3.439 -0.004,6.878 -0.005,10.317 0,0.184 -0.018,0.368 -0.033,0.639 -1,-0.524 -1.9,-1.016 -2.82,-1.467 -0.332,-0.163 -0.434,-0.373 -0.425,-0.725 0.021,-0.855 -0.047,-1.714 0.022,-2.563 0.063,-0.772 -0.162,-1.26 -0.925,-1.494 -0.33,-0.101 -0.631,-0.295 -0.947,-0.445 -0.689,-0.326 -0.901,-0.188 -0.904,0.594 -0.003,0.947 0,1.893 0,2.952 m -6.909,7.058 c 0.774,-0.407 1.476,-0.776 2.179,-1.144 2.217,-1.163 4.438,-2.321 6.65,-3.495 0.286,-0.152 0.505,-0.169 0.798,-0.006 0.894,0.497 1.809,0.96 2.799,1.481 -1.162,0.61 -2.238,1.174 -3.313,1.738 -0.138,0.073 -0.317,0.114 -0.402,0.226 -0.131,0.176 -0.197,0.401 -0.291,0.605 0.232,0.053 0.514,0.219 0.687,0.142 0.743,-0.333 1.454,-0.736 2.176,-1.115 0.704,-0.37 1.424,-0.715 2.103,-1.128 0.202,-0.124 0.405,-0.441 0.407,-0.671 0.024,-4.042 0.023,-8.085 10e-4,-12.128 -10e-4,-0.216 -0.186,-0.53 -0.375,-0.631 -3.273,-1.742 -6.557,-3.464 -9.85,-5.166 -0.201,-0.104 -0.55,-0.103 -0.751,10e-4 -3.294,1.702 -6.577,3.423 -9.85,5.165 -0.189,0.101 -0.376,0.414 -0.378,0.629 -0.022,4.043 -0.023,8.086 0.002,12.128 0.001,0.23 0.202,0.563 0.404,0.671 3.271,1.745 6.555,3.466 9.847,5.172 0.187,0.097 0.508,0.097 0.697,0.003 1.267,-0.633 2.517,-1.301 3.77,-1.962 0.27,-0.143 0.53,-0.324 0.331,-0.681 -0.195,-0.35 -0.481,-0.237 -0.755,-0.093 -1.082,0.57 -2.172,1.126 -3.243,1.717 -0.331,0.183 -0.587,0.173 -0.91,-0.008 -0.876,-0.488 -1.771,-0.942 -2.733,-1.45"
         style="fill:#0a2240;fill-opacity:1;fill-rule:nonzero;stroke:none"
         id="path4486" />
      <path
         d="m 591.6609,545.6108 c 0,0.258 0,0.445 0,0.633 0.004,3.417 -0.004,6.835 0.024,10.252 0.004,0.465 -0.131,0.727 -0.553,0.876 -0.145,0.051 -0.317,0.115 -0.397,0.229 -0.098,0.138 -0.203,0.395 -0.139,0.491 0.091,0.138 0.388,0.293 0.5,0.239 0.891,-0.427 1.765,-0.889 2.624,-1.376 0.107,-0.061 0.183,-0.403 0.114,-0.492 -0.101,-0.132 -0.355,-0.225 -0.527,-0.203 -0.232,0.03 -0.448,0.186 -0.765,0.331 0,-0.282 0,-0.487 0,-0.692 -0.008,-3.398 -0.004,-6.796 -0.035,-10.194 -0.005,-0.464 0.132,-0.723 0.549,-0.883 0.215,-0.082 0.451,-0.179 0.602,-0.339 0.118,-0.126 0.211,-0.406 0.147,-0.533 -0.064,-0.127 -0.388,-0.257 -0.51,-0.199 -0.874,0.416 -1.735,0.865 -2.576,1.344 -0.116,0.066 -0.191,0.412 -0.122,0.535 0.072,0.127 0.343,0.186 0.529,0.19 0.153,0.004 0.31,-0.115 0.535,-0.209"
         style="fill:#0a2240;fill-opacity:1;fill-rule:nonzero;stroke:none"
         id="path4488" />
      <path
         d="m 609.6132,536.2108 c 0.139,-0.096 0.27,-0.139 0.311,-0.224 0.088,-0.186 0.129,-0.394 0.19,-0.593 -0.218,-0.046 -0.485,-0.195 -0.647,-0.12 -0.791,0.367 -1.568,0.77 -2.317,1.217 -0.16,0.096 -0.181,0.426 -0.266,0.649 0.222,0.035 0.531,0.182 0.652,0.088 0.799,-0.626 1.478,-0.353 2.267,0.077 2.622,1.43 5.281,2.79 7.996,4.212 -0.228,0.142 -0.44,0.218 -0.563,0.367 -0.116,0.14 -0.244,0.44 -0.18,0.52 0.111,0.139 0.42,0.277 0.552,0.215 0.859,-0.404 1.702,-0.848 2.526,-1.319 0.123,-0.071 0.226,-0.442 0.159,-0.521 -0.116,-0.136 -0.47,-0.27 -0.557,-0.199 -0.817,0.665 -1.486,0.2 -2.212,-0.188 -2.429,-1.298 -4.875,-2.566 -7.314,-3.846 -0.183,-0.097 -0.361,-0.203 -0.597,-0.335"
         style="fill:#0a2240;fill-opacity:1;fill-rule:nonzero;stroke:none"
         id="path4490" />
      <path
         d="m 601.2831,536.2244 c -3.014,1.58 -5.95,3.125 -8.896,4.648 -0.166,0.086 -0.433,0.038 -0.634,-0.017 -0.22,-0.061 -0.409,-0.256 -0.628,-0.289 -0.171,-0.026 -0.454,0.055 -0.526,0.181 -0.07,0.124 0.002,0.47 0.116,0.536 0.841,0.481 1.702,0.931 2.577,1.348 0.122,0.058 0.445,-0.069 0.51,-0.195 0.066,-0.127 -0.028,-0.397 -0.139,-0.536 -0.12,-0.152 -0.34,-0.226 -0.584,-0.376 0.316,-0.168 0.566,-0.303 0.817,-0.435 2.612,-1.369 5.23,-2.726 7.83,-4.119 0.417,-0.223 0.741,-0.243 1.117,0.02 0.173,0.121 0.371,0.257 0.569,0.278 0.192,0.02 0.46,-0.046 0.576,-0.179 0.071,-0.081 -0.023,-0.461 -0.143,-0.53 -0.842,-0.48 -1.704,-0.927 -2.577,-1.348 -0.113,-0.055 -0.402,0.058 -0.476,0.176 -0.074,0.119 -0.022,0.363 0.052,0.513 0.059,0.12 0.235,0.181 0.439,0.324"
         style="fill:#0a2240;fill-opacity:1;fill-rule:nonzero;stroke:none"
         id="path4492" />
    </g>
  </g>
</svg>
