<?xml version="1.0" encoding="UTF-8" standalone="no"?>
<!-- Uploaded to: SVG Repo, www.svgrepo.com, Generator: SVG Repo Mixer Tools -->

<svg
   width="800px"
   height="800px"
   viewBox="0 0 192 192"
   fill="none"
   version="1.1"
   id="svg190"
   sodipodi:docname="containers.svg"
   inkscape:version="1.2.1 (9c6d41e, 2022-07-14)"
   xmlns:inkscape="http://www.inkscape.org/namespaces/inkscape"
   xmlns:sodipodi="http://sodipodi.sourceforge.net/DTD/sodipodi-0.dtd"
   xmlns="http://www.w3.org/2000/svg"
   xmlns:svg="http://www.w3.org/2000/svg">
  <defs
     id="defs194">
  </defs>
  <sodipodi:namedview
     id="namedview192"
     pagecolor="#ffffff"
     bordercolor="#000000"
     borderopacity="0.25"
     inkscape:showpageshadow="2"
     inkscape:pageopacity="0.0"
     inkscape:pagecheckerboard="0"
     inkscape:deskcolor="#d1d1d1"
     showgrid="false"
     inkscape:zoom="0.8423352"
     inkscape:cx="382.27062"
     inkscape:cy="493.86515"
     inkscape:window-width="1728"
     inkscape:window-height="1080"
     inkscape:window-x="0"
     inkscape:window-y="37"
     inkscape:window-maximized="0"
     inkscape:current-layer="svg190" />
  <g
     id="g4342"
     clip-path="url(#clipPath29155)"
     transform="matrix(5.5739896,0,0,-6.0514276,-1842.3513,3424.318)">
    <g
       clip-path="url(#clipPath1988)"
       id="g4340">
      <path
         d="m 356.1034,538.5547 h 1.063 c -0.366,0.35 -0.718,0.687 -1.063,1.017 z m -19.478,20.952 h 0.889 v 0.92 h -0.889 z m 15.781,0.92 c 0.55,-0.506 0.846,-1.19 1.678,-0.896 v 0.896 z m -12.127,-0.924 c -0.599,0.478 -0.882,1.206 -1.721,0.879 v -0.879 z m 15.833,-2.496 c -0.042,-0.048 -0.085,-0.097 -0.127,-0.146 0.621,-0.667 1.282,-1.296 2.004,-2.023 v 2.169 z m -4.247,2.47 c -0.824,1.485 -2.119,0.821 -3.255,0.891 0.313,-0.347 0.636,-0.784 1.027,-0.855 0.701,-0.128 1.443,-0.036 2.228,-0.036 m -3.878,-0.001 c -0.763,0.971 -2.052,1.284 -3.394,0.812 0.459,-0.301 0.822,-0.7 1.245,-0.779 0.665,-0.125 1.371,-0.033 2.149,-0.033 m -7.257,1.018 c 0.796,-1.02 2.075,-1.331 3.275,-0.914 -0.745,1.394 -2.06,0.688 -3.275,0.914 m 19.269,-1.742 c 0.414,0.164 0.796,0.29 1.152,0.47 0.127,0.064 0.262,0.253 0.269,0.391 0.03,0.582 0.013,1.167 0.013,1.772 h -1.46 c 0,-0.723 -0.001,-1.41 10e-4,-2.096 10e-4,-0.157 0.014,-0.315 0.025,-0.537 m -2.131,-15.549 c 0.051,0.022 0.102,0.045 0.153,0.068 0,0.539 0.006,1.079 -0.002,1.618 -0.004,0.26 0.068,0.606 -0.068,0.762 -0.556,0.641 -1.178,1.223 -1.877,1.928 0,-0.87 -0.012,-1.557 0.009,-2.243 0.005,-0.162 0.083,-0.355 0.193,-0.474 0.518,-0.564 1.059,-1.108 1.592,-1.659 m -1.642,8.174 c -0.05,-0.023 -0.101,-0.047 -0.152,-0.07 0,-0.54 -0.006,-1.08 0.003,-1.62 0.003,-0.259 -0.067,-0.604 0.069,-0.761 0.555,-0.639 1.177,-1.221 1.875,-1.926 0,0.872 0.012,1.559 -0.009,2.245 -0.005,0.161 -0.084,0.354 -0.194,0.473 -0.518,0.564 -1.059,1.108 -1.592,1.659 m 1.642,-12.073 c 0.051,0.022 0.102,0.045 0.153,0.067 0,0.54 0.006,1.08 -0.002,1.619 -0.004,0.259 0.068,0.606 -0.068,0.762 -0.556,0.641 -1.178,1.223 -1.877,1.928 0,-0.871 -0.012,-1.557 0.009,-2.243 0.005,-0.162 0.083,-0.355 0.193,-0.474 0.518,-0.564 1.059,-1.108 1.592,-1.659 m -0.008,11.676 c 0.053,0.032 0.107,0.065 0.16,0.098 0,0.705 0.005,1.41 -0.004,2.115 -0.002,0.111 -0.033,0.251 -0.105,0.328 -0.553,0.603 -1.119,1.193 -1.681,1.788 -0.051,-0.033 -0.103,-0.065 -0.155,-0.097 0,-0.72 -0.008,-1.439 0.008,-2.158 0.002,-0.125 0.074,-0.273 0.161,-0.368 0.531,-0.575 1.076,-1.139 1.616,-1.706 m 3.06,-13.482 h -7.742 v -0.899 h 7.742 z m -1.957,24.374 h -3.82 v -3.831 h 3.82 z m -3.911,-4.862 c -0.837,0.063 -0.837,0.063 -0.973,1.451 h -15.552 c 0,-1.212 10e-4,-2.404 0,-3.596 0,-0.995 0.028,-1.992 -0.02,-2.984 -0.011,-0.236 -0.228,-0.588 -0.434,-0.665 -0.742,-0.279 -1.059,-0.55 -0.998,-1.081 0.059,-0.505 0.361,-0.81 0.862,-0.883 0.507,-0.073 0.853,0.224 1.118,0.938 h 0.883 c 0.01,-0.954 -0.62,-1.718 -1.548,-1.899 -0.888,-0.174 -1.825,0.348 -2.164,1.205 -0.351,0.883 -0.036,1.942 0.816,2.367 0.457,0.228 0.519,0.505 0.515,0.937 -0.016,1.867 -0.007,3.734 -0.007,5.698 -0.437,0 -0.853,0.009 -1.268,-0.002 -0.45,-0.012 -0.689,0.173 -0.683,0.643 0.008,0.548 0.008,1.097 0,1.645 -0.006,0.471 0.233,0.655 0.682,0.643 0.401,-0.011 0.803,-0.002 1.25,-0.002 v 1.902 h 0.984 v -1.87 h 0.959 v 0.904 h 0.98 c 0.014,-0.287 0.027,-0.566 0.042,-0.89 h 13.544 c 0.079,0.418 0.029,0.961 0.277,1.228 0.227,0.244 0.776,0.188 1.256,0.279 v 1.828 h 0.964 v -1.88 h 0.979 v 0.891 h 0.963 c 0.019,-0.282 0.039,-0.575 0.064,-0.946 0.357,0 0.839,0.144 1.01,-0.025 0.7,-0.694 1.543,-0.329 2.311,-0.47 0.205,-0.038 0.508,-0.326 0.519,-0.513 0.054,-0.931 0.05,-1.868 0.006,-2.8 -0.01,-0.2 -0.234,-0.461 -0.429,-0.567 -0.424,-0.232 -0.893,-0.382 -1.344,-0.563 -0.311,-0.125 -0.598,-0.21 -0.744,-0.612 -0.073,-0.203 -0.513,-0.272 -0.847,-0.431 v -18.373 c 0.702,0 1.405,-0.021 2.105,0.006 0.57,0.023 0.83,-0.193 0.799,-0.78 -0.028,-0.506 -0.01,-1.015 -0.006,-1.522 0.004,-0.43 -0.201,-0.632 -0.631,-0.632 -2.823,0.003 -5.645,0.003 -8.467,0 -0.421,-10e-4 -0.653,0.171 -0.652,0.61 10e-4,0.569 0.002,1.137 -0.001,1.706 -10e-4,0.437 0.227,0.617 0.649,0.613 0.729,-0.006 1.458,-0.002 2.231,-0.002 z"
         style="fill:#0a2240;fill-opacity:1;fill-rule:nonzero;stroke:none"
         id="path4306" />
      <path
         d="m 341.909,540.422 h -6.744 v -3.824 h 6.744 z m 7.312,9.747 h -6.744 v -3.821 h 6.744 z m -6.263,-13.554 h 6.745 v 3.822 h -6.745 z m -6.351,4.868 h 6.744 v 3.823 h -6.744 z m 7.798,-0.009 h 6.755 v 3.821 h -6.755 z m 5.865,4.841 c 0.426,0 0.828,-0.009 1.229,0.002 0.452,0.012 0.68,-0.18 0.678,-0.647 -0.006,-1.522 -0.006,-3.044 0,-4.566 10e-4,-0.47 -0.235,-0.658 -0.683,-0.641 -0.239,0.008 -0.479,0.001 -0.781,0.001 0,-1.363 10e-4,-2.676 0,-3.989 -0.002,-0.803 -0.08,-0.884 -0.863,-0.885 -4.951,-10e-4 -9.902,-10e-4 -14.853,0 -0.781,10e-4 -0.857,0.082 -0.858,0.889 -0.001,1.34 -0.001,2.679 0,4.018 10e-4,0.882 0.053,0.935 0.924,0.944 0.159,0.002 0.317,0 0.538,0 0,1.342 -10e-4,2.635 0,3.928 10e-4,0.888 0.056,0.945 0.922,0.946 1.619,10e-4 3.238,0 4.927,0 0,0.751 -0.021,1.455 0.005,2.158 0.033,0.857 0.105,1.714 0.16,2.571 0.86,0.048 1.719,0.127 2.579,0.139 1.664,0.022 3.328,0.006 4.992,0.006 1.013,0 1.039,-0.026 1.04,-1.012 10e-4,-1.217 0.002,-2.435 0.005,-3.652 0,-0.039 0.014,-0.078 0.039,-0.21"
         style="fill:#0a2240;fill-opacity:1;fill-rule:nonzero;stroke:none"
         id="path4308" />
      <path
         d="m 345.387,542.435 h 0.891 v 1.897 h -0.891 z"
         style="fill:#0a2240;fill-opacity:1;fill-rule:nonzero;stroke:none"
         id="path4310" />
      <path
         d="m 347.334,542.455 h 0.896 v 1.9 h -0.896 z"
         style="fill:#0a2240;fill-opacity:1;fill-rule:nonzero;stroke:none"
         id="path4312" />
      <path
         d="m 349.289,542.438 h 0.907 v 1.892 h -0.907 z"
         style="fill:#0a2240;fill-opacity:1;fill-rule:nonzero;stroke:none"
         id="path4314" />
      <path
         d="m 337.587,542.456 h 0.895 v 1.899 h -0.895 z"
         style="fill:#0a2240;fill-opacity:1;fill-rule:nonzero;stroke:none"
         id="path4316" />
      <path
         d="m 339.54,542.46 h 0.908 v 1.877 h -0.908 z"
         style="fill:#0a2240;fill-opacity:1;fill-rule:nonzero;stroke:none"
         id="path4318" />
      <path
         d="m 341.474,542.442 h 0.92 v 1.884 h -0.92 z"
         style="fill:#0a2240;fill-opacity:1;fill-rule:nonzero;stroke:none"
         id="path4320" />
      <path
         d="m 343.931,537.568 h 0.9 v 1.884 h -0.9 z"
         style="fill:#0a2240;fill-opacity:1;fill-rule:nonzero;stroke:none"
         id="path4322" />
      <path
         d="m 345.867,537.575 h 0.907 v 1.869 h -0.907 z"
         style="fill:#0a2240;fill-opacity:1;fill-rule:nonzero;stroke:none"
         id="path4324" />
      <path
         d="m 347.818,537.578 h 0.903 v 1.887 h -0.903 z"
         style="fill:#0a2240;fill-opacity:1;fill-rule:nonzero;stroke:none"
         id="path4326" />
      <path
         d="m 347.34,547.335 h 0.905 v 1.877 h -0.905 z"
         style="fill:#0a2240;fill-opacity:1;fill-rule:nonzero;stroke:none"
         id="path4328" />
      <path
         d="m 345.395,547.318 h 0.895 v 1.9 h -0.895 z"
         style="fill:#0a2240;fill-opacity:1;fill-rule:nonzero;stroke:none"
         id="path4330" />
      <path
         d="m 343.428,547.329 h 0.904 v 1.88 h -0.904 z"
         style="fill:#0a2240;fill-opacity:1;fill-rule:nonzero;stroke:none"
         id="path4332" />
      <path
         d="m 336.114,537.57 h 0.915 v 1.879 h -0.915 z"
         style="fill:#0a2240;fill-opacity:1;fill-rule:nonzero;stroke:none"
         id="path4334" />
      <path
         d="m 338.066,537.581 h 0.904 v 1.88 h -0.904 z"
         style="fill:#0a2240;fill-opacity:1;fill-rule:nonzero;stroke:none"
         id="path4336" />
      <path
         d="m 340.03,537.566 h 0.902 v 1.9 h -0.902 z"
         style="fill:#0a2240;fill-opacity:1;fill-rule:nonzero;stroke:none"
         id="path4338" />
    </g>
  </g>
</svg>
