<?xml version="1.0" encoding="UTF-8" standalone="no"?>
<!-- Uploaded to: SVG Repo, www.svgrepo.com, Generator: SVG Repo Mixer Tools -->

<svg
   width="800px"
   height="800px"
   viewBox="0 0 192 192"
   fill="none"
   version="1.1"
   id="svg190"
   sodipodi:docname="home.svg"
   inkscape:version="1.2.1 (9c6d41e, 2022-07-14)"
   xmlns:inkscape="http://www.inkscape.org/namespaces/inkscape"
   xmlns:sodipodi="http://sodipodi.sourceforge.net/DTD/sodipodi-0.dtd"
   xmlns="http://www.w3.org/2000/svg"
   xmlns:svg="http://www.w3.org/2000/svg">
  <defs
     id="defs194" />
  <sodipodi:namedview
     id="namedview192"
     pagecolor="#ffffff"
     bordercolor="#000000"
     borderopacity="0.25"
     inkscape:showpageshadow="2"
     inkscape:pageopacity="0.0"
     inkscape:pagecheckerboard="0"
     inkscape:deskcolor="#d1d1d1"
     showgrid="false"
     inkscape:zoom="0.31594936"
     inkscape:cx="107.61218"
     inkscape:cy="1199.5593"
     inkscape:window-width="1728"
     inkscape:window-height="1052"
     inkscape:window-x="0"
     inkscape:window-y="65"
     inkscape:window-maximized="0"
     inkscape:current-layer="svg190" />
  <path
     d="m 117.47941,165.10564 c 0,-10.79816 0.0774,-21.27919 -0.12893,-31.74999 -0.0206,-0.93096 -1.8411,-2.53713 -2.90347,-2.60874 -4.42998,-0.29669 -8.88575,-0.12788 -13.30542,-0.12788 v 34.48661 z M 95.154146,130.58833 c -4.228858,0 -8.127662,0.0767 -12.03162,-0.0205 -3.197429,-0.0818 -4.548584,1.22253 -4.50217,4.49114 0.123772,9.13062 0.0361,18.26635 0.05673,27.39697 0,0.85935 0.185657,1.7187 0.283643,2.54225 h 16.193435 z m -38.47228,34.44059 h 16.440975 c 0,-1.39645 0,-2.61898 0,-3.84151 0,-8.91578 -0.02579,-17.83156 0.01031,-26.74734 0.02063,-5.78528 3.37793,-9.27895 9.117814,-9.31987 10.603091,-0.0716 21.206185,-0.0819 31.809265,0.005 5.56456,0.046 8.9528,3.54483 8.97858,9.11016 0.0464,8.91577 0.0155,17.83155 0.0155,26.74733 0,1.23276 0,2.46552 0,3.96427 h 16.46676 v -3.71874 c 0,-18.74206 0,-37.48924 0.005,-56.23641 0,-1.02815 -0.28364,-2.22511 0.14956,-3.03842 0.50024,-0.95143 1.63997,-2.148381 2.52184,-2.158611 0.9025,-0.01535 2.05255,1.120231 2.66109,2.035841 0.4332,0.65475 0.19597,1.77498 0.19597,2.68548 0.0103,20.34823 0.0103,40.69646 0.005,61.03957 -0.005,4.61902 -0.50024,5.12542 -5.15715,5.12542 -27.88983,0.0102 -55.779662,0.0102 -83.669479,0 -4.595015,0 -5.090101,-0.52175 -5.090101,-5.19192 -0.0052,-38.5225 -0.0052,-77.045001 0,-115.567504 0,-7.038503 3.264472,-10.388953 10.273031,-10.414529 13.367316,-0.04092 26.73462,-0.01534 40.107099,-0.0051 0.80451,0 1.84626,-0.225068 2.35681,0.179032 0.96955,0.757048 2.12475,1.846584 2.2382,2.900313 0.0774,0.700781 -1.39243,1.836354 -2.39291,2.301836 -0.86124,0.398985 -2.03707,0.143225 -3.07366,0.143225 -12.789719,0.0051 -25.58458,-0.0051 -38.374296,0.01023 -4.904444,0.0051 -5.595502,0.700781 -5.595502,5.519291 -0.0052,36.921448 0,73.842886 0,110.764336 z"
     style="fill:#0a2240;fill-opacity:1;fill-rule:nonzero;stroke:none;stroke-width:5.13612"
     id="path4164" />
  <path
     d="m 97.733749,182.04358 c -25.703191,0 -51.406396,0 -77.104452,0 -1.1552,0 -2.315557,0.0614 -3.455286,-0.0716 -5.203557,-0.62405 -8.8393442,-5.64205 -6.977615,-10.4401 4.254644,-10.96697 8.777458,-21.83675 13.532345,-32.594 0.804514,-1.81078 3.181958,-3.7392 5.105572,-4.08192 4.027737,-0.71101 8.246281,-0.56267 12.371996,-0.38364 0.892186,0.0409 2.372286,1.70847 2.372286,2.62409 0.0052,0.86958 -1.500729,2.36834 -2.485743,2.49622 -2.841586,0.35806 -5.750215,0.25576 -8.627909,0.15345 -2.434172,-0.087 -3.769873,0.95143 -4.667216,3.17142 -3.800815,9.43241 -7.735715,18.80856 -11.603573,28.21539 -1.686386,4.10239 -0.809672,5.40676 3.677043,5.41188 17.405368,0.0205 34.805572,0.0102 52.210932,0.0102 34.460021,0 68.925201,0 103.385241,-0.005 5.6677,0 6.37423,-1.0435 4.23402,-6.24053 -3.70283,-8.97716 -7.49849,-17.91852 -11.08271,-26.94171 -1.0469,-2.61898 -2.53731,-3.8364 -5.415,-3.63179 -2.52184,0.17392 -5.12104,0.31714 -7.581,-0.10742 -1.21709,-0.20461 -2.20726,-1.71359 -3.30057,-2.63432 1.12426,-0.90539 2.17631,-2.46041 3.38824,-2.5934 3.18712,-0.35295 6.44643,-0.19438 9.66449,-0.0409 4.01741,0.18927 6.49284,2.47576 7.96779,6.0922 3.971,9.72909 8.03998,19.42238 12.00583,29.15659 2.86221,7.02315 -0.7942,12.41457 -8.43193,12.4248 -26.39426,0.0256 -52.78853,0.0102 -79.182781,0.0102"
     style="fill:#0a2240;fill-opacity:1;fill-rule:nonzero;stroke:none;stroke-width:5.13612"
     id="path4166" />
  <path
     d="m 142.32292,83.869764 c 7.75119,-13.27392 15.61583,-25.642452 22.33559,-38.599231 5.12105,-9.862088 1.09847,-22.112971 -7.98841,-28.680876 -9.15393,-6.6139425 -21.53624,-6.220073 -30.09194,0.95654 -8.70526,7.304493 -11.5159,19.688371 -6.00807,29.529998 6.81259,12.174155 14.17699,24.041398 21.75283,36.793569 m 29.84955,-47.724732 c 0.0413,5.503946 -1.47494,10.588446 -4.28043,15.309767 -7.42113,12.481066 -14.84742,24.962132 -22.29433,37.432968 -2.37229,3.969388 -4.32684,3.989849 -6.66819,0.0665 -7.6171,-12.767517 -15.31672,-25.483881 -22.76363,-38.348587 -6.29687,-10.880011 -4.79615,-24.409692 3.40887,-33.883025 8.21017,-9.4835648 21.46919,-12.8237845 33.27905,-8.3786835 11.70672,4.3990645 19.34445,15.3967245 19.31866,27.8010635"
     style="fill:#0a2240;fill-opacity:1;fill-rule:nonzero;stroke:none;stroke-width:5.13612"
     id="path4168" />
  <path
     d="M 85.855812,93.941575 H 73.844841 v 10.854435 h 12.010971 z m -6.317501,16.547645 c -2.532141,0 -5.064298,-0.0205 -7.596456,0.0102 -2.516686,0.0256 -3.867858,-1.02304 -3.836915,-3.67271 0.05673,-5.02312 0.04126,-10.046234 0.01031,-15.074466 -0.02063,-2.470638 1.258344,-3.509022 3.625473,-3.509022 5.409843,0 10.81967,0.0051 16.229518,-0.0051 2.594043,0 3.759557,1.304374 3.744086,3.836394 -0.02579,4.905468 -0.01547,9.816054 -0.0052,14.726644 0.0052,2.58828 -1.356329,3.71362 -3.883329,3.69316 -2.764233,-0.0205 -5.523305,-0.005 -8.287534,-0.005"
     style="fill:#0a2240;fill-opacity:1;fill-rule:nonzero;stroke:none;stroke-width:5.13612"
     id="path4170" />
  <path
     d="m 122.36839,93.941575 h -12.06256 v 10.854435 h 12.06256 z m -6.13185,16.547645 c -2.65077,0 -5.30154,-0.005 -7.94715,0 -2.53731,0.005 -3.84723,-1.1765 -3.83176,-3.75455 0.0206,-4.91059 0.0206,-9.821169 -0.005,-14.731752 -0.0103,-2.572941 1.27897,-3.764781 3.82144,-3.764781 5.41499,0.01023 10.82484,0.0051 16.23984,0.01023 2.38776,0 3.59968,1.135572 3.58421,3.570403 -0.0309,5.028233 -0.0309,10.05135 0.005,15.07447 0.0155,2.43483 -1.18614,3.58063 -3.57906,3.59086 -2.76423,0.0102 -5.52846,0 -8.28753,0.005"
     style="fill:#0a2240;fill-opacity:1;fill-rule:nonzero;stroke:none;stroke-width:5.13612"
     id="path4172" />
  <path
     d="M 73.819056,71.475656 H 85.943484 V 60.84629 H 73.819056 Z m 5.781141,5.698323 c -2.645598,0 -5.29637,-0.04092 -7.941985,0.01535 -2.233043,0.04604 -3.522329,-0.838892 -3.522329,-3.171419 -0.0052,-5.2533 -0.01547,-10.501486 0.0052,-15.754788 0.0052,-2.076767 1.072686,-3.156073 3.202586,-3.156073 5.641916,0 11.278657,0.01535 16.920576,-0.01534 2.320715,-0.01023 3.398558,1.207185 3.419186,3.370911 0.04126,5.135652 0.04126,10.276419 0,15.41207 -0.01547,2.194417 -1.134572,3.35045 -3.450129,3.309528 -2.87769,-0.04604 -5.755376,-0.01023 -8.633062,-0.01023"
     style="fill:#0a2240;fill-opacity:1;fill-rule:nonzero;stroke:none;stroke-width:5.13612"
     id="path4174" />
  <path
     d="m 109.98815,71.70584 c 2.26398,0 4.0793,-0.347833 5.65738,0.107419 1.25319,0.368293 2.21757,1.708474 3.31089,2.618978 -1.05206,0.910504 -2.01129,2.43483 -3.18196,2.613862 -2.57341,0.398985 -5.25513,0.102304 -7.89558,0.132995 -2.31555,0.03069 -3.38308,-1.171379 -3.39856,-3.35045 -0.0361,-5.120305 -0.17534,-10.250842 0.11346,-15.355803 0.0619,-1.156033 1.55746,-2.971926 2.6353,-3.171418 2.15569,-0.39387 2.76938,1.437368 2.76422,3.36068 -0.0155,4.189342 -0.005,8.378683 -0.005,13.043737"
     style="fill:#0a2240;fill-opacity:1;fill-rule:nonzero;stroke:none;stroke-width:5.13612"
     id="path4176" />
  <path
     d="m 142.08312,46.385133 c 5.8843,0.07673 10.62371,-4.506483 10.62371,-10.276419 -0.005,-5.549982 -4.66206,-10.266189 -10.26787,-10.383838 -5.78632,-0.122765 -10.53089,4.547405 -10.5412,10.368493 -0.005,5.75459 4.41451,10.215036 10.18536,10.291764 m -0.005,5.493715 c -8.96312,-0.08696 -15.81181,-7.074309 -15.71898,-16.036124 0.0928,-8.608867 7.23032,-15.616678 15.89948,-15.616678 8.74136,0 16.03356,7.289147 15.98714,15.969626 -0.0464,8.757208 -7.27673,15.770135 -16.16764,15.683176"
     style="fill:#0a2240;fill-opacity:1;fill-rule:nonzero;stroke:none;stroke-width:5.13612"
     id="path4178" />
</svg>
