<?xml version="1.0" encoding="utf-8"?>
<!-- Generator: Adobe Illustrator 23.0.0, SVG Export Plug-In . SVG Version: 6.00 Build 0)  -->
<svg version="1.1" id="Layer_1" xmlns="http://www.w3.org/2000/svg" xmlns:xlink="http://www.w3.org/1999/xlink" x="0px" y="0px"
	 viewBox="0 0 483.8 169.72" style="enable-background:new 0 0 483.8 169.72;" xml:space="preserve">
<style type="text/css">
	.st0{fill:none;stroke:#FFFFFF;stroke-miterlimit:10;}
	.st1{fill:#FFFFFF;}
	.st2{fill-rule:evenodd;clip-rule:evenodd;fill:#FFFFFF;}
	.st3{fill:none;}
</style>
<rect x="-29.77" y="-329.29" class="st0" width="483.8" height="169.72"/>
<g>
	<g>
		<path class="st1" d="M76.51-180.62h-3.22v-22.24h3.22V-180.62z"/>
		<path class="st1" d="M91.43-180.62h-3.22v-22.24h3.31l10.92,16.83l-0.15-16.83h3.18v22.24h-3.08l-11.16-17.33L91.43-180.62z"/>
		<path class="st1" d="M122.85-180.62h-3.22v-19.24h-4.15v-2.99H127v2.99h-4.15V-180.62z"/>
		<path class="st1" d="M148.53-180.62h-11.55v-22.24h11.55v2.96h-8.32v6.64h8.32v2.9h-8.32v6.66h8.32V-180.62z"/>
		<path class="st1" d="M163.51-180.62h-3.22v-22.24h6.42c2.66,0,4.7,0.62,6.11,1.85c1.41,1.23,2.11,3.02,2.11,5.34
			c0,1.81-0.59,3.33-1.76,4.55c-1.17,1.22-2.69,1.87-4.54,1.96l6.31,8.53h-4.03l-7.38-10.32V-180.62z M163.51-191.31h1.65
			c2.23,0,3.89-0.36,4.98-1.08c1.09-0.72,1.63-1.82,1.63-3.3c0-1.43-0.47-2.49-1.41-3.16c-0.94-0.67-2.42-1.01-4.44-1.01h-2.41
			V-191.31z"/>
		<path class="st1" d="M189-180.62h-3.22v-22.24h3.32l10.92,16.83l-0.15-16.83h3.18v22.24h-3.09l-11.16-17.33L189-180.62z"/>
		<path class="st1" d="M217.74-187.09l-2.5,6.47h-3.41l8.69-22.24h3.13l8.69,22.24h-3.53l-2.44-6.47H217.74z M225.21-190.23
			l-3.13-8.45l-3.2,8.45H225.21z"/>
		<path class="st1" d="M261.62-186.2c-0.97,1.95-2.3,3.43-4.01,4.47c-1.71,1.04-3.68,1.55-5.93,1.55c-1.67,0-3.21-0.32-4.62-0.96
			c-1.41-0.65-2.67-1.6-3.79-2.86c-0.95-1.05-1.66-2.24-2.15-3.58c-0.49-1.33-0.73-2.77-0.73-4.29c0-1.55,0.29-3.02,0.89-4.41
			c0.59-1.39,1.46-2.65,2.6-3.79c1.08-1.06,2.28-1.86,3.6-2.41c1.32-0.55,2.73-0.82,4.25-0.82c2.28,0,4.28,0.54,6.01,1.62
			c1.73,1.08,3.03,2.6,3.9,4.58h-3.79c-0.71-0.99-1.59-1.73-2.63-2.23c-1.04-0.5-2.21-0.75-3.53-0.75c-1.05,0-2.05,0.2-3,0.59
			c-0.95,0.4-1.78,0.97-2.52,1.72c-0.76,0.79-1.36,1.7-1.79,2.74c-0.43,1.03-0.64,2.1-0.64,3.18c0,1.16,0.19,2.26,0.58,3.29
			c0.39,1.03,0.94,1.92,1.67,2.68c0.77,0.79,1.65,1.41,2.64,1.85c1,0.44,2.02,0.66,3.06,0.66c1.27,0,2.42-0.24,3.44-0.73
			c1.02-0.48,1.87-1.18,2.53-2.1H261.62z"/>
		<path class="st1" d="M275.94-180.62h-3.22v-22.24h3.22V-180.62z"/>
		<path class="st1" d="M286.63-191.87c0-1.56,0.3-3.03,0.89-4.43c0.59-1.4,1.46-2.65,2.6-3.77c1.08-1.06,2.28-1.86,3.6-2.41
			c1.32-0.55,2.73-0.82,4.25-0.82c1.56,0,3,0.27,4.33,0.82c1.33,0.54,2.54,1.36,3.64,2.44c1.13,1.11,1.98,2.35,2.55,3.73
			c0.57,1.37,0.85,2.85,0.85,4.44c0,1.58-0.24,3.03-0.73,4.36c-0.49,1.33-1.22,2.52-2.2,3.58c-1.15,1.25-2.44,2.18-3.86,2.81
			c-1.42,0.63-2.96,0.95-4.62,0.95c-1.67,0-3.21-0.32-4.62-0.96c-1.41-0.65-2.67-1.6-3.79-2.86c-0.95-1.05-1.66-2.24-2.15-3.58
			C286.88-188.91,286.63-190.35,286.63-191.87z M289.99-191.84c0,1.16,0.2,2.26,0.58,3.29c0.39,1.03,0.94,1.92,1.66,2.68
			c0.76,0.79,1.64,1.41,2.64,1.85c1,0.44,2.02,0.66,3.06,0.66c2.3,0,4.22-0.82,5.77-2.45c1.54-1.63,2.32-3.66,2.32-6.09
			c0-1.03-0.18-2.01-0.55-2.94c-0.37-0.93-0.92-1.79-1.63-2.57c-0.84-0.9-1.75-1.58-2.71-2.01c-0.96-0.43-2.03-0.65-3.2-0.65
			c-1.05,0-2.05,0.2-3,0.59c-0.95,0.4-1.79,0.97-2.52,1.72c-0.76,0.79-1.36,1.7-1.79,2.74
			C290.21-193.99,289.99-192.92,289.99-191.84z"/>
		<path class="st1" d="M323.3-180.62h-3.22v-22.24h3.31l10.92,16.83l-0.15-16.83h3.18v22.24h-3.09l-11.16-17.33L323.3-180.62z"/>
		<path class="st1" d="M352.04-187.09l-2.5,6.47h-3.41l8.69-22.24h3.13l8.69,22.24h-3.53l-2.44-6.47H352.04z M359.51-190.23
			l-3.13-8.45l-3.19,8.45H359.51z"/>
		<path class="st1" d="M386.19-180.62h-10.51v-22.24h3.22v19.16h7.29V-180.62z"/>
	</g>
	<g>
		<g>
			<path class="st2" d="M37.3-227.65c-13.43,5.71-26,4.53-34.45-1.93c7.43,2.42,16.5,1.91,26.02-2.14
				c22.18-9.44,38.56-34.61,36.45-56.03c-1.08-10.93-6.77-18.83-15.03-22.69c13.08,1.56,22.75,10.89,24.2,25.63
				C76.64-262.96,59.93-237.28,37.3-227.65L37.3-227.65z M59.05-291.26c-8.93-6.61-18.77-10.75-30.19-5.19
				c-10.4,5.06-20.09,15.37-26.23,29.6C3-285.93,14.56-300.3,27.19-306.14C40.65-312.37,55.33-308.94,59.05-291.26L59.05-291.26z"/>
		</g>
		<g>
			<path class="st2" d="M1.95-292.76c-8.1,20.8-6.04,40.42,5.22,46.66c10.84,6.01,29.99-0.38,49.37-20.95
				C41.35-237.03,16.47-228.5,1.5-235.68C-12.55-242.43-16.33-264.07,1.95-292.76L1.95-292.76z"/>
		</g>
	</g>
	<path class="st1" d="M114.76-244.9c0,0-26.04,1.3-19.1-19.1c0,0,6.51-15.63,14.32-9.55c0,0,3.47,2.17,4.77,8.25
		c0,0,15.63-7.38,14.32-13.89c0,0-6.08-15.19-26.48-1.74c0,0-26.91,16.93-22.14,38.2c0,0,5.64,13.45,17.8,9.98
		C98.27-232.74,107.81-234.91,114.76-244.9z"/>
	<path class="st1" d="M374.33-244.9c0,0-26.04,1.3-19.1-19.1c0,0,6.51-15.63,14.32-9.55c0,0,3.47,2.17,4.78,8.25
		c0,0,15.62-7.38,14.32-13.89c0,0-6.08-15.19-26.48-1.74c0,0-26.91,16.93-22.14,38.2c0,0,5.64,13.45,17.8,9.98
		C357.83-232.74,367.38-234.91,374.33-244.9z"/>
	<path class="st1" d="M149.05-260.09c0,0,0,4.34,3.91,3.04c0,0,15.19-6.94,22.13-16.06c0,0,7.38-17.8-15.63-9.98
		c0,0-22.13,6.95-30.82,29.95c0,0-4.34,18.66,13.02,20.83c0,0,7.81,0.87,17.8-7.81l5.64-4.78c0,0,2.17-4.34-6.08-0.87
		c0,0-6.08,5.21-13.02-6.08c0,0-7.38-13.89,4.34-21.27c0,0,6.51-3.91,8.68,1.74C159.03-271.37,164.68-266.6,149.05-260.09z"/>
	<path class="st1" d="M211.12-294.81l10.42-7.49c0,0,3.26-3.26,3.91-1.3l2.28,7.49l-14.32,6.51
		C213.4-289.6,206.24-290.91,211.12-294.81z"/>
	<path class="st1" d="M198.42-277.88l13.35-6.84c0,0,2.28-1.63,5.21,1.63c0,0,9.44,12.05,13.35,41.34l-14.65,9.44
		c0,0-0.65-20.83-13.35-23.11c0,0-13.35-1.63-14,6.51c0,0,1.3,9.77,16.28,3.91l1.3,2.28c0,0-23.44,17.25-30.6,5.53
		c0,0-6.51-11.39,11.72-19.86c0,0,10.74-5.86,21.81-4.23c0,0-4.88-12.7-8.47-11.72c0,0-6.83,2.61-6.83,0.98
		C193.54-272.02,194.19-277.23,198.42-277.88z"/>
	<path class="st1" d="M408.07-277.88l13.35-6.84c0,0,2.28-1.63,5.21,1.63c0,0,9.44,12.05,13.35,41.34l-14.65,9.44
		c0,0-0.65-20.83-13.35-23.11c0,0-13.35-1.63-14,6.51c0,0,1.3,9.77,16.27,3.91l1.3,2.28c0,0-23.44,17.25-30.6,5.53
		c0,0-6.51-11.39,11.72-19.86c0,0,10.74-5.86,21.81-4.23c0,0-4.88-12.7-8.46-11.72c0,0-6.84,2.61-6.84,0.98
		C403.19-272.02,403.84-277.23,408.07-277.88z"/>
	<path class="st1" d="M240.75-233.61c0,0,0.33,2.28,2.6-0.33c0,0,14.98-19.53,28.65-28.65c0,0,10.42-7.49,9.44,1.3
		c0,0-2.28,19.86-4.88,28.65l15.63-10.09l7.16-29.95c0,0,3.58-17.25-8.14-10.74c0,0-8.79,3.91-25.72,20.18c0,0-3.91,0.98-2.28-4.88
		l2.61-13.02c0,0,0.32-5.54-6.84-1.63L244-274.63c0,0-2.6,2.28,1.95,2.28c0,0,4.23-0.98,2.93,3.58L240.75-233.61z"/>
	<path class="st1" d="M316.6-265.19c0,0-5.54,23.77-7.16,27.67c0,0-1.63,3.91,2.93,1.95l12.37-7.16c0,0,9.12-32.23,10.09-37.76
		c0,0,1.3-5.86-4.23-2.93l-20.18,9.12c0,0,1.96,2.28,4.23,2.28C314.64-272.02,318.55-270.4,316.6-265.19z"/>
	<path class="st1" d="M336.13-303.93l-10.74,6.19c0,0-3.91,1.3-1.95,5.21c0,0,0.98,5.54,12.7,0.33l9.11-4.56L336.13-303.93z"/>
</g>
<rect class="st3" width="483.8" height="169.72"/>
<g>
	<g>
		<path class="st1" d="M106.28,148.67h-3.22v-22.24h3.22V148.67z"/>
		<path class="st1" d="M121.2,148.67h-3.22v-22.24h3.31l10.92,16.83l-0.15-16.83h3.18v22.24h-3.08l-11.16-17.33L121.2,148.67z"/>
		<path class="st1" d="M152.61,148.67h-3.22v-19.24h-4.15v-2.99h11.53v2.99h-4.15V148.67z"/>
		<path class="st1" d="M178.3,148.67h-11.55v-22.24h11.55v2.96h-8.32v6.64h8.32v2.9h-8.32v6.66h8.32V148.67z"/>
		<path class="st1" d="M193.28,148.67h-3.22v-22.24h6.42c2.66,0,4.7,0.62,6.11,1.85c1.41,1.23,2.11,3.02,2.11,5.34
			c0,1.81-0.59,3.33-1.76,4.55c-1.17,1.22-2.69,1.87-4.54,1.96l6.31,8.53h-4.03l-7.38-10.32V148.67z M193.28,137.98h1.65
			c2.23,0,3.89-0.36,4.98-1.08c1.09-0.72,1.63-1.82,1.63-3.3c0-1.43-0.47-2.49-1.41-3.16c-0.94-0.67-2.42-1.01-4.44-1.01h-2.41
			V137.98z"/>
		<path class="st1" d="M218.77,148.67h-3.22v-22.24h3.32l10.92,16.83l-0.15-16.83h3.18v22.24h-3.09l-11.16-17.33L218.77,148.67z"/>
		<path class="st1" d="M247.51,142.2l-2.5,6.47h-3.41l8.69-22.24h3.13l8.69,22.24h-3.53l-2.44-6.47H247.51z M254.98,139.06
			l-3.13-8.45l-3.2,8.45H254.98z"/>
		<path class="st1" d="M291.39,143.09c-0.97,1.95-2.3,3.43-4.01,4.47c-1.71,1.04-3.68,1.55-5.93,1.55c-1.67,0-3.21-0.32-4.62-0.96
			c-1.41-0.65-2.67-1.6-3.79-2.86c-0.95-1.05-1.66-2.24-2.15-3.58c-0.49-1.33-0.73-2.77-0.73-4.29c0-1.55,0.29-3.02,0.89-4.41
			c0.59-1.39,1.46-2.65,2.6-3.79c1.08-1.06,2.28-1.86,3.6-2.41c1.32-0.55,2.73-0.82,4.25-0.82c2.28,0,4.28,0.54,6.01,1.62
			c1.73,1.08,3.03,2.6,3.9,4.58h-3.79c-0.71-0.99-1.59-1.73-2.62-2.23c-1.04-0.5-2.21-0.75-3.53-0.75c-1.05,0-2.05,0.2-3,0.59
			c-0.95,0.4-1.78,0.97-2.52,1.72c-0.76,0.79-1.36,1.7-1.79,2.74c-0.43,1.03-0.64,2.1-0.64,3.18c0,1.16,0.19,2.26,0.58,3.29
			c0.39,1.03,0.94,1.92,1.67,2.68c0.77,0.79,1.65,1.41,2.64,1.85c1,0.44,2.02,0.66,3.06,0.66c1.27,0,2.42-0.24,3.44-0.73
			c1.02-0.48,1.87-1.18,2.53-2.1H291.39z"/>
		<path class="st1" d="M305.71,148.67h-3.22v-22.24h3.22V148.67z"/>
		<path class="st1" d="M316.4,137.42c0-1.56,0.3-3.03,0.89-4.43c0.59-1.4,1.46-2.65,2.6-3.77c1.08-1.06,2.28-1.86,3.6-2.41
			c1.32-0.55,2.73-0.82,4.25-0.82c1.56,0,3,0.27,4.33,0.82c1.33,0.54,2.54,1.36,3.64,2.44c1.13,1.11,1.98,2.35,2.55,3.73
			c0.57,1.37,0.85,2.85,0.85,4.44c0,1.58-0.24,3.03-0.73,4.36c-0.49,1.33-1.22,2.52-2.2,3.58c-1.15,1.25-2.44,2.18-3.86,2.81
			c-1.42,0.63-2.96,0.95-4.62,0.95c-1.67,0-3.21-0.32-4.62-0.96c-1.41-0.65-2.67-1.6-3.79-2.86c-0.95-1.05-1.66-2.24-2.15-3.58
			C316.64,140.38,316.4,138.94,316.4,137.42z M319.76,137.45c0,1.16,0.2,2.26,0.58,3.29c0.39,1.03,0.94,1.92,1.66,2.68
			c0.76,0.79,1.64,1.41,2.64,1.85c1,0.44,2.02,0.66,3.06,0.66c2.3,0,4.22-0.82,5.77-2.45c1.54-1.63,2.32-3.66,2.32-6.09
			c0-1.03-0.18-2.01-0.55-2.94c-0.37-0.93-0.92-1.79-1.63-2.57c-0.84-0.9-1.75-1.58-2.71-2.01c-0.96-0.43-2.03-0.65-3.2-0.65
			c-1.05,0-2.05,0.2-3,0.59c-0.95,0.4-1.79,0.97-2.52,1.72c-0.76,0.79-1.36,1.7-1.79,2.74C319.97,135.3,319.76,136.37,319.76,137.45
			z"/>
		<path class="st1" d="M353.07,148.67h-3.22v-22.24h3.31l10.92,16.83l-0.15-16.83h3.18v22.24h-3.09l-11.16-17.33L353.07,148.67z"/>
		<path class="st1" d="M381.81,142.2l-2.5,6.47h-3.41l8.69-22.24h3.13l8.69,22.24h-3.53l-2.44-6.47H381.81z M389.28,139.06
			l-3.13-8.45l-3.19,8.45H389.28z"/>
		<path class="st1" d="M415.96,148.67h-10.51v-22.24h3.22v19.16h7.29V148.67z"/>
	</g>
	<g>
		<g>
			<path class="st2" d="M67.07,101.64c-13.43,5.71-26,4.53-34.45-1.93c7.43,2.42,16.5,1.91,26.02-2.14
				c22.18-9.44,38.56-34.61,36.45-56.03c-1.08-10.93-6.77-18.83-15.03-22.69c13.08,1.56,22.75,10.89,24.2,25.63
				C106.41,66.33,89.7,92.01,67.07,101.64L67.07,101.64z M88.82,38.03c-8.93-6.61-18.77-10.75-30.19-5.19
				c-10.4,5.06-20.09,15.37-26.23,29.6c0.37-19.08,11.93-33.45,24.56-39.29C70.42,16.92,85.1,20.35,88.82,38.03L88.82,38.03z"/>
		</g>
		<g>
			<path class="st2" d="M31.72,36.53c-8.11,20.8-6.04,40.42,5.22,46.66c10.84,6.01,29.99-0.38,49.37-20.95
				c-15.19,30.03-40.08,38.55-55.04,31.37C17.22,86.86,13.44,65.22,31.72,36.53L31.72,36.53z"/>
		</g>
	</g>
	<path class="st1" d="M144.53,84.39c0,0-26.04,1.3-19.1-19.1c0,0,6.51-15.63,14.32-9.55c0,0,3.47,2.17,4.77,8.25
		c0,0,15.63-7.38,14.32-13.89c0,0-6.08-15.19-26.48-1.74c0,0-26.91,16.93-22.14,38.2c0,0,5.64,13.45,17.8,9.98
		C128.03,96.55,137.58,94.38,144.53,84.39z"/>
	<path class="st1" d="M404.1,84.39c0,0-26.04,1.3-19.1-19.1c0,0,6.51-15.63,14.32-9.55c0,0,3.47,2.17,4.78,8.25
		c0,0,15.62-7.38,14.32-13.89c0,0-6.08-15.19-26.48-1.74c0,0-26.91,16.93-22.14,38.2c0,0,5.64,13.45,17.8,9.98
		C387.6,96.55,397.15,94.38,404.1,84.39z"/>
	<path class="st1" d="M178.82,69.2c0,0,0,4.34,3.91,3.04c0,0,15.19-6.94,22.13-16.06c0,0,7.38-17.8-15.63-9.98
		c0,0-22.13,6.95-30.82,29.95c0,0-4.34,18.66,13.02,20.83c0,0,7.81,0.87,17.8-7.81l5.64-4.78c0,0,2.17-4.34-6.08-0.87
		c0,0-6.08,5.21-13.02-6.08c0,0-7.38-13.89,4.34-21.27c0,0,6.51-3.91,8.68,1.74C188.8,57.92,194.44,62.69,178.82,69.2z"/>
	<path class="st1" d="M240.89,34.48l10.42-7.49c0,0,3.26-3.26,3.91-1.3l2.28,7.49l-14.32,6.51C243.17,39.69,236,38.39,240.89,34.48z
		"/>
	<path class="st1" d="M228.19,51.41l13.35-6.84c0,0,2.28-1.63,5.21,1.63c0,0,9.44,12.05,13.35,41.34l-14.65,9.44
		c0,0-0.65-20.83-13.35-23.11c0,0-13.35-1.63-14,6.51c0,0,1.3,9.77,16.28,3.91l1.3,2.28c0,0-23.44,17.25-30.6,5.53
		c0,0-6.51-11.39,11.72-19.86c0,0,10.74-5.86,21.81-4.23c0,0-4.88-12.7-8.47-11.72c0,0-6.83,2.61-6.83,0.98
		C223.31,57.27,223.96,52.06,228.19,51.41z"/>
	<path class="st1" d="M437.84,51.41l13.35-6.84c0,0,2.28-1.63,5.21,1.63c0,0,9.44,12.05,13.35,41.34l-14.65,9.44
		c0,0-0.65-20.83-13.35-23.11c0,0-13.35-1.63-14,6.51c0,0,1.3,9.77,16.27,3.91l1.3,2.28c0,0-23.44,17.25-30.6,5.53
		c0,0-6.51-11.39,11.72-19.86c0,0,10.74-5.86,21.81-4.23c0,0-4.88-12.7-8.46-11.72c0,0-6.84,2.61-6.84,0.98
		C432.96,57.27,433.61,52.06,437.84,51.41z"/>
	<path class="st1" d="M270.51,95.68c0,0,0.33,2.28,2.6-0.33c0,0,14.98-19.53,28.65-28.65c0,0,10.42-7.49,9.44,1.3
		c0,0-2.28,19.86-4.88,28.65l15.63-10.09l7.16-29.95c0,0,3.58-17.25-8.14-10.74c0,0-8.79,3.91-25.72,20.18c0,0-3.91,0.98-2.28-4.88
		l2.61-13.02c0,0,0.32-5.54-6.84-1.63l-14.98,8.14c0,0-2.6,2.28,1.95,2.28c0,0,4.23-0.98,2.93,3.58L270.51,95.68z"/>
	<path class="st1" d="M346.37,64.1c0,0-5.54,23.77-7.16,27.67c0,0-1.63,3.91,2.93,1.95l12.37-7.16c0,0,9.12-32.23,10.09-37.76
		c0,0,1.3-5.86-4.23-2.93l-20.18,9.12c0,0,1.96,2.28,4.23,2.28C344.41,57.27,348.32,58.9,346.37,64.1z"/>
	<path class="st1" d="M365.9,25.36l-10.74,6.19c0,0-3.91,1.3-1.95,5.21c0,0,0.98,5.54,12.7,0.33l9.11-4.56L365.9,25.36z"/>
</g>
</svg>
