<?xml version="1.0" encoding="UTF-8" standalone="no"?>
<!-- Uploaded to: SVG Repo, www.svgrepo.com, Generator: SVG Repo Mixer Tools -->

<svg
   width="800px"
   height="800px"
   viewBox="0 0 192 192"
   fill="none"
   version="1.1"
   id="svg190"
   sodipodi:docname="members.svg"
   inkscape:version="1.2.1 (9c6d41e, 2022-07-14)"
   xmlns:inkscape="http://www.inkscape.org/namespaces/inkscape"
   xmlns:sodipodi="http://sodipodi.sourceforge.net/DTD/sodipodi-0.dtd"
   xmlns="http://www.w3.org/2000/svg"
   xmlns:svg="http://www.w3.org/2000/svg">
  <defs
     id="defs194">
  </defs>
  <sodipodi:namedview
     id="namedview192"
     pagecolor="#ffffff"
     bordercolor="#000000"
     borderopacity="0.25"
     inkscape:showpageshadow="2"
     inkscape:pageopacity="0.0"
     inkscape:pagecheckerboard="0"
     inkscape:deskcolor="#d1d1d1"
     showgrid="false"
     inkscape:zoom="0.8423352"
     inkscape:cx="217.25318"
     inkscape:cy="441.62941"
     inkscape:window-width="1728"
     inkscape:window-height="1012"
     inkscape:window-x="0"
     inkscape:window-y="38"
     inkscape:window-maximized="0"
     inkscape:current-layer="svg190" />
  <path
     d="m 85.265038,56.396558 v -0.32736 c -0.15424,0.1408 -0.15264,0.20608 0,0.32736 m 3.56064,3.96256 c -0.16672,-0.19584 -0.1888,-0.19488 -0.32704,0 z m -5.0032,0.01856 c 0.13568,-0.0083 0.22976,-0.0144 0.3568,-0.02208 -0.14304,-0.184 -0.23648,-0.16736 -0.3568,0.02208 m 2.68128,-1.68416 c -0.1504,-0.224 -0.17472,-0.22496 -0.35072,-0.02112 0.12288,0.0074 0.21312,0.0128 0.35072,0.02112 m -1.46528,-0.93376 v 0.32832 c 0.1664,-0.12096 0.16672,-0.19904 0,-0.32832 m -2.09536,-0.0112 c -0.16512,0.16704 -0.16224,0.22688 0,0.33792 z m 4.4288,-1.67904 v 0.33568 c 0.15776,-0.14496 0.15712,-0.20704 0,-0.33568 m 2.06592,3.60544 c -0.248,-0.13408 -0.34048,-0.07712 -0.55712,0.3296 0.09248,0.06496 0.1856,0.13088 0.2896,0.20416 0.09504,-0.19008 0.17856,-0.35648 0.26752,-0.53376 m -6.2144,0.0042 c 0.08608,0.17248 0.17312,0.34624 0.26496,0.53056 0.11296,-0.08032 0.20352,-0.14496 0.3056,-0.21792 -0.0768,-0.09696 -0.15328,-0.17856 -0.21248,-0.27136 -0.10016,-0.15744 -0.21184,-0.16704 -0.35808,-0.04128 m 2.14816,-1.95648 c 0.09248,-0.03392 0.14336,-0.05792 0.19712,-0.07168 0.17504,-0.04544 0.1488,-0.19264 0.09792,-0.2816 -0.1264,-0.22016 -0.28608,-0.4208 -0.38752,-0.56576 0.02432,0.24192 0.05728,0.568 0.09248,0.91904 m 1.89536,0.01536 c 0.03456,-0.36736 0.06496,-0.69184 0.0912,-0.96864 -0.0736,0.12896 -0.15136,0.3136 -0.27328,0.46176 -0.08832,0.1072 -0.15616,0.21728 -0.1024,0.3296 0.03616,0.07488 0.1632,0.10592 0.28448,0.17728 m 0.87776,2.47296 c 0.11104,-0.0816 0.20352,-0.14976 0.30368,-0.22336 -0.08256,-0.10272 -0.16128,-0.18432 -0.22016,-0.2784 -0.10624,-0.17024 -0.21696,-0.13696 -0.34944,-0.03072 0.08736,0.17504 0.17024,0.34112 0.26592,0.53248 m -3.36352,-0.53472 c -0.16736,-0.1344 -0.27488,-0.09344 -0.36896,0.05472 -0.05568,0.088 -0.1296,0.1648 -0.20416,0.2576 0.10592,0.07584 0.2,0.14336 0.30688,0.22016 0.09312,-0.18624 0.17824,-0.3568 0.26624,-0.53248 m 2.35328,-1.74656 c -0.12896,0 -0.2464,-0.03584 -0.29824,0.0074 -0.11552,0.096 -0.19808,0.23136 -0.30144,0.36 0.10944,0.07776 0.2032,0.14432 0.30784,0.21856 0.09376,-0.18848 0.17888,-0.35904 0.29184,-0.58592 m -1.5872,0.04928 c 0.0912,0.18144 0.17824,0.35456 0.2704,0.53728 0.11296,-0.08192 0.20544,-0.1488 0.30464,-0.2208 -0.08128,-0.10144 -0.15648,-0.17728 -0.21056,-0.26624 -0.09568,-0.15776 -0.20832,-0.16448 -0.36448,-0.05024 m 1.19808,-0.42624 h -0.79424 c 0.06144,0.22784 0.24544,0.35712 0.38208,0.55456 0.14272,-0.192 0.26688,-0.35936 0.41216,-0.55456 m 1.54496,1.69216 c 0.03712,0.23744 0.24256,0.35456 0.3696,0.56 0.12032,-0.21248 0.33408,-0.3264 0.36288,-0.56 z m -3.92896,-3.2e-4 h -0.7808 c 0.14912,0.1984 0.27648,0.36768 0.42432,0.56448 0.11456,-0.2208 0.344,-0.32544 0.35648,-0.56448 m 2.00384,0.91264 c 0.06304,-0.11808 0.17248,-0.22848 0.16864,-0.33536 -0.0083,-0.24 -0.06848,-0.47904 -0.11712,-0.7168 -0.0096,-0.04736 -0.06112,-0.08608 -0.09344,-0.12896 -0.02784,0.04064 -0.07104,0.07776 -0.08064,0.12256 -0.0368,0.16992 -0.048,0.34688 -0.09696,0.51264 -0.06656,0.22592 -0.01376,0.3952 0.21952,0.54592 m 2.29216,2.67744 c 0.1136,-0.12544 0.21344,-0.22816 0.30304,-0.3392 0.03072,-0.03808 0.05632,-0.10048 0.04928,-0.14592 -0.08384,-0.5216 -0.17248,-1.04256 -0.2656,-1.56256 -0.0077,-0.04192 -0.05856,-0.07584 -0.08928,-0.11328 -0.02848,0.03872 -0.0752,0.07456 -0.08288,0.11712 -0.0912,0.51424 -0.17856,1.0288 -0.26144,1.54432 -0.0077,0.048 0.0051,0.1136 0.03456,0.1504 0.09216,0.11584 0.19648,0.22176 0.31232,0.34912 m -4.6448,-0.01216 c 0.08096,-0.08928 0.14816,-0.1808 0.23232,-0.25184 0.11104,-0.09376 0.12032,-0.2 0.096,-0.33216 -0.08576,-0.47072 -0.1616,-0.94336 -0.24768,-1.41408 -0.0099,-0.05408 -0.0608,-0.1008 -0.09248,-0.15072 -0.03264,0.05056 -0.08512,0.09792 -0.09504,0.15296 -0.07136,0.39104 -0.10112,0.79328 -0.20896,1.17376 -0.10176,0.3584 0.02176,0.59136 0.27968,0.80064 0.0045,0.0038 0.01056,0.0064 0.03616,0.02144 m 2.64416,-4.03424 c 0.05632,0.34048 0.10688,0.64704 0.16096,0.97344 0.36128,-0.13888 0.7024,-0.26944 1.04288,-0.4016 0.19136,-0.07424 0.20768,-0.20832 0.08032,-0.36992 -0.1168,-0.14848 -0.19968,-0.3232 -0.30048,-0.48416 -0.02688,-0.04256 -0.05952,-0.08672 -0.10048,-0.11328 -0.07584,-0.0496 -0.15968,-0.08672 -0.23072,-0.12416 -0.21376,0.16416 -0.12864,0.64384 -0.65248,0.51968 m -0.81504,0.9744 c 0.05248,-0.32864 0.1024,-0.63936 0.1584,-0.99072 -0.27008,0.10944 -0.38464,0.0083 -0.46336,-0.17888 -0.05152,-0.12288 -0.12128,-0.23776 -0.17856,-0.3472 -0.10048,0.05536 -0.18144,0.10016 -0.26272,0.14496 -0.02592,0.01408 -0.0624,0.0224 -0.07584,0.04448 -0.1248,0.20384 -0.25984,0.40384 -0.35904,0.61984 -0.03104,0.06784 0.0112,0.24064 0.06528,0.26496 0.3568,0.15968 0.72608,0.29184 1.11584,0.44256 m 1.74336,-2.35648 c 0.10848,-0.03808 0.19776,-0.09728 0.28608,-0.096 0.41696,0.0054 0.80064,-0.09824 1.15456,-0.31424 0.13344,-0.0816 0.24672,-0.06272 0.34976,0.04992 0.10272,0.11264 0.20608,0.22464 0.32576,0.3552 0.03456,-0.46688 -0.11616,-0.82368 -0.49312,-1.05856 -0.3776,-0.2352 -0.77184,-0.22944 -1.14496,0.01312 -0.38144,0.24832 -0.50976,0.6208 -0.47808,1.05056 m -0.2096,-1.69376 c 0.03456,-0.49024 -0.1312,-0.86208 -0.54208,-1.0912 -0.38048,-0.21248 -0.76992,-0.19008 -1.12928,0.06176 -0.35872,0.25152 -0.47744,0.6128 -0.448,1.03008 0.1024,-0.03648 0.19104,-0.09536 0.27936,-0.09472 0.42304,0.0016 0.81344,-0.09984 1.1728,-0.32288 0.12576,-0.0784 0.23744,-0.05472 0.33472,0.0512 0.10496,0.11424 0.20832,0.22912 0.33248,0.36576 m -1.80864,0.24928 c 0,0.17504 -0.01216,0.39904 0.0026,0.62112 0.02784,0.42208 0.35264,0.71744 0.76512,0.71328 0.40256,-0.0042 0.7232,-0.32256 0.74048,-0.7424 0.0067,-0.168 -0.01504,-0.33888 0.0061,-0.50464 0.02912,-0.23072 -0.08,-0.37312 -0.18976,-0.45024 -0.46624,0.12768 -0.8816,0.2416 -1.32448,0.36288 m 3.65216,1.33056 c -0.46272,0.12704 -0.87808,0.24096 -1.32224,0.36288 0,0.18048 -0.01088,0.40992 0.0022,0.63744 0.02368,0.40448 0.35072,0.69792 0.75904,0.69696 0.3968,-9.6e-4 0.72256,-0.31296 0.74176,-0.71744 0.008,-0.17408 -0.01376,-0.35072 0.007,-0.52256 0.02656,-0.22016 -0.06432,-0.36832 -0.18784,-0.45728 m -4.65472,-3.2e-4 c -0.46112,0.12672 -0.88224,0.24224 -1.33088,0.36512 0,0.1712 -0.0128,0.3888 0.0029,0.60416 0.03104,0.43584 0.35488,0.73344 0.77248,0.728 0.41024,-0.0051 0.72288,-0.3248 0.74016,-0.76224 0.0061,-0.15552 -0.01312,-0.31328 0.0051,-0.4672 0.02688,-0.2256 -0.06208,-0.38272 -0.18976,-0.46784 m -2.19584,5.59968 c 0,-0.08576 0,-0.15328 0,-0.2208 0,-0.56768 -9.6e-4,-1.13504 6.4e-4,-1.70272 3.2e-4,-0.11072 -0.01504,-0.2512 0.14944,-0.24736 0.1488,0.0038 0.13632,0.1344 0.13664,0.24096 3.2e-4,0.56128 0,1.12256 0,1.68384 v 0.24096 h 0.97504 c 0,-0.02048 0.0022,-0.02816 -3.2e-4,-0.032 -0.01856,-0.02464 -0.03456,-0.05376 -0.05856,-0.072 -0.216,-0.16736 -0.232,-0.37664 -0.17952,-0.63232 0.1008,-0.48768 0.16992,-0.98176 0.24928,-1.47392 0.0096,-0.05888 0.0013,-0.12096 0.0013,-0.2064 -0.23456,0.10528 -0.34272,0.01248 -0.42176,-0.15904 -0.0848,-0.184 -0.18016,-0.3632 -0.27296,-0.54816 -0.23968,0.09248 -0.45568,0.17184 -0.6688,0.25824 -0.27904,0.11328 -0.45248,0.3168 -0.45536,0.624 -0.007,0.73536 -9.6e-4,1.47104 3.2e-4,2.20672 0,0.01024 0.01152,0.02048 0.02368,0.04 z m 5.93376,-2.40928 c -0.26368,0.06272 -0.31456,0.04032 -0.41632,-0.15776 -0.09536,-0.1856 -0.18944,-0.37216 -0.28608,-0.56192 -0.25024,0.09792 -0.47904,0.17952 -0.70112,0.27616 -0.24704,0.10752 -0.41344,0.29728 -0.41728,0.57152 -0.0099,0.74848 -0.0026,1.49664 -9.6e-4,2.24512 0,0.01024 0.01248,0.02016 0.02016,0.03136 h 0.52896 v -0.21632 c 0,-0.53664 0,-1.07296 0,-1.60928 0,-0.04384 -3.2e-4,-0.08736 3.2e-4,-0.1312 0.0013,-0.10336 0.0032,-0.21664 0.14624,-0.21024 0.1264,0.0054 0.1312,0.10912 0.13088,0.20768 -3.2e-4,0.58624 0,1.17248 0,1.75904 0,0.06624 0,0.13248 0,0.19936 h 1.0064 c -0.04992,-0.05888 -0.07648,-0.10112 -0.11328,-0.1312 -0.17984,-0.14816 -0.208,-0.32416 -0.1616,-0.55104 0.10336,-0.50624 0.17856,-1.01856 0.2624,-1.52864 0.0093,-0.056 0.0013,-0.11488 0.0013,-0.19264 m -2.95008,2.41024 v -0.21952 c 0,-0.57376 0,-1.14784 3.2e-4,-1.7216 0,-0.10752 -0.01024,-0.2336 0.144,-0.23136 0.14208,0.0022 0.13248,0.12384 0.13248,0.22368 9.6e-4,0.58016 6.4e-4,1.16032 6.4e-4,1.74048 0,0.06656 0,0.13312 0,0.20384 h 0.54752 c 0,-0.78496 0.009,-1.55744 -0.0058,-2.32928 -0.0042,-0.21408 -0.14208,-0.39168 -0.33984,-0.48448 -0.2464,-0.11552 -0.50432,-0.2064 -0.7728,-0.31392 -0.09376,0.18528 -0.18656,0.35296 -0.26496,0.52736 -0.08128,0.18176 -0.19008,0.29216 -0.42784,0.18848 -0.0042,0.08 -0.01792,0.1392 -0.0086,0.19456 0.07616,0.46112 0.14176,0.92448 0.24064,1.3808 0.06688,0.30944 0.064,0.57728 -0.21248,0.78336 -0.01088,0.0083 -0.01088,0.03104 -0.0192,0.0576 z m -2.4224,-5.504 c 0.13728,-0.02912 0.2624,-0.07392 0.3888,-0.07872 0.36352,-0.01472 0.704,-0.10176 1.01216,-0.29408 0.16896,-0.1056 0.30016,-0.08448 0.424,0.06688 0.0896,0.10912 0.1888,0.21088 0.28256,0.31488 0.07168,-0.5008 -0.192,-0.9584 -0.66016,-1.14336 -0.04064,-0.016 -0.09408,-0.02048 -0.11968,-0.04928 -0.04032,-0.04608 -0.0624,-0.10816 -0.09216,-0.16352 0.0592,-0.03168 0.13152,-0.10272 0.17568,-0.08832 0.17504,0.05792 0.34144,0.1424 0.55456,0.23616 0.02624,-0.21088 0.0704,-0.42496 0.0768,-0.64064 0.0224,-0.73728 0.5712,-1.31712 1.29056,-1.34784 0.71808,-0.0304 1.31808,0.50016 1.39296,1.23712 0.01344,0.12992 -0.0045,0.26368 0.01536,0.39232 0.01792,0.11872 0.0672,0.23296 0.09856,0.33568 0.21408,-0.08544 0.40736,-0.19744 0.61472,-0.23872 0.83456,-0.16672 1.56864,0.43584 1.61248,1.29504 0.0099,0.19456 0.04576,0.38944 0.08672,0.5808 0.0512,0.23872 -0.05056,0.47616 -0.28448,0.56416 -0.10336,0.03872 -0.13216,0.10304 -0.17248,0.19072 -0.06368,0.13952 -0.14112,0.27776 -0.2384,0.39552 -0.15648,0.19008 -0.13216,0.32896 0.09728,0.4176 0.32544,0.12576 0.65184,0.24992 0.97632,0.37792 0.43136,0.16992 0.66048,0.50432 0.664,0.96512 0.0013,0.17504 0.0128,0.35104 -0.0064,0.52384 -0.0074,0.06624 -0.08704,0.12448 -0.13408,0.18624 -0.04672,-0.0624 -0.12768,-0.12096 -0.1344,-0.1872 -0.0208,-0.21024 -0.0074,-0.424 -0.01952,-0.63552 -0.01408,-0.25344 -0.15136,-0.43904 -0.37376,-0.54336 -0.23584,-0.11072 -0.48448,-0.19392 -0.74432,-0.29568 -0.09152,0.17984 -0.17888,0.35072 -0.26496,0.52192 -0.1216,0.24064 -0.1536,0.25792 -0.4304,0.2096 0,0.06752 -0.0086,0.1312 0.0013,0.192 0.07808,0.4864 0.144,0.97568 0.24672,1.45696 0.05696,0.26624 0.03264,0.47712 -0.18816,0.64832 -0.02336,0.01824 -0.0384,0.04672 -0.0752,0.09248 h 1.00128 v -0.19488 c 0,-0.5808 0,-1.1616 0,-1.74208 0,-0.10304 -0.0019,-0.22016 0.13376,-0.22656 0.15168,-0.007 0.15232,0.11808 0.15264,0.22656 9.6e-4,0.57472 3.2e-4,1.14912 6.4e-4,1.72352 0,0.06752 0,0.13504 0,0.21696 h 0.55296 c 0,-0.2336 -3.2e-4,-0.4624 3.2e-4,-0.69088 3.2e-4,-0.08736 -0.01248,-0.1792 0.01088,-0.26048 0.01504,-0.05152 0.08576,-0.12128 0.13056,-0.12096 0.0464,6.4e-4 0.13024,0.07552 0.13152,0.12 0.0096,0.33664 0.01728,0.67456 -0.0051,1.01024 -0.01088,0.15872 -0.14816,0.23904 -0.31072,0.2416 -0.20608,0.0032 -0.41216,0.0013 -0.61824,0.0013 -1.12992,0 -2.26016,0 -3.3904,0 -1.608,0 -3.21568,0 -4.82336,0 -0.34208,-3.2e-4 -0.43616,-0.0928 -0.43648,-0.43008 -3.2e-4,-0.67456 -9.6e-4,-1.3488 3.2e-4,-2.02336 9.6e-4,-0.48544 0.2272,-0.81408 0.68,-0.99072 0.33664,-0.13152 0.67488,-0.25952 1.01152,-0.39136 0.15744,-0.06144 0.17792,-0.19936 0.08032,-0.3376 -0.11648,-0.16512 -0.208,-0.34752 -0.31744,-0.51808 -0.02944,-0.0464 -0.07808,-0.09024 -0.128,-0.11232 -0.29472,-0.13184 -0.38496,-0.39424 -0.2624,-0.69568 0.04896,-0.12 0.04672,-0.2656 0.048,-0.4 0.0048,-0.55488 0.24448,-0.96896 0.72768,-1.24 0.07008,-0.03936 0.14816,-0.07904 0.22528,-0.08544 0.0544,-0.0045 0.14368,0.03392 0.16224,0.0768 0.01728,0.04096 -0.03328,0.11456 -0.06176,0.1696 -0.009,0.0176 -0.0432,0.02208 -0.06592,0.03232 -0.51712,0.2336 -0.73696,0.60128 -0.70304,1.14656"
     style="fill:#0a2240;fill-opacity:1;fill-rule:nonzero;stroke:none;stroke-width:0.32"
     id="path4244"
     clip-path="url(#clipPath8535)"
     transform="matrix(17.85914,0,0,16.039772,-1446.4012,-847.06027)" />
</svg>
