<?xml version="1.0" encoding="UTF-8" standalone="no"?>
<!-- Uploaded to: SVG Repo, www.svgrepo.com, Generator: SVG Repo Mixer Tools -->

<svg
   width="800px"
   height="800px"
   viewBox="0 0 192 192"
   fill="none"
   version="1.1"
   id="svg190"
   sodipodi:docname="truck.svg"
   inkscape:version="1.2.1 (9c6d41e, 2022-07-14)"
   xmlns:inkscape="http://www.inkscape.org/namespaces/inkscape"
   xmlns:sodipodi="http://sodipodi.sourceforge.net/DTD/sodipodi-0.dtd"
   xmlns="http://www.w3.org/2000/svg"
   xmlns:svg="http://www.w3.org/2000/svg">
  <defs
     id="defs194">
  </defs>
  <sodipodi:namedview
     id="namedview192"
     pagecolor="#ffffff"
     bordercolor="#000000"
     borderopacity="0.25"
     inkscape:showpageshadow="2"
     inkscape:pageopacity="0.0"
     inkscape:pagecheckerboard="0"
     inkscape:deskcolor="#d1d1d1"
     showgrid="false"
     inkscape:zoom="0.8423352"
     inkscape:cx="382.27062"
     inkscape:cy="493.86515"
     inkscape:window-width="1728"
     inkscape:window-height="1080"
     inkscape:window-x="0"
     inkscape:window-y="37"
     inkscape:window-maximized="0"
     inkscape:current-layer="svg190" />
  <g
     id="g4428"
     clip-path="url(#clipPath29131)"
     transform="matrix(4.2475135,0,0,-4.48,-1929.5313,2549.8936)">
    <g
       clip-path="url(#clipPath2072)"
       id="g4426">
      <path
         d="m 465.1768,543.6077 c 0.185,-0.462 0.198,-0.902 0.839,-0.915 0.688,-0.013 0.698,0.467 0.873,0.915 z m 19.122,0.021 c 0.349,-1.038 0.379,-1.052 1.533,-0.819 v 0.819 z m -7.291,-2.49 c -0.376,0.56 -2.705,0.554 -3.053,0 z m 8.772,6.451 c 0.302,1.223 0.154,3.193 -0.254,3.389 -0.298,-1.232 -0.151,-3.197 0.254,-3.389 m -27.897,-4.778 c 1.707,-0.32 2.015,-0.21 2.265,0.794 h -2.265 z m 37.541,7.779 c 0.041,0.066 0.083,0.132 0.125,0.197 -0.39,0.357 -0.743,0.956 -1.178,1.023 -0.999,0.154 -2.038,0.049 -3.049,0.049 v -1.269 z m -16.157,-6.996 h -7.349 c 0.059,-0.721 0.416,-0.913 1.059,-0.898 1.716,0.04 3.434,0.046 5.15,-0.003 0.671,-0.019 1.051,0.169 1.14,0.901 m -9.903,0.059 c -0.946,-0.004 -1.721,-0.779 -1.713,-1.712 0.009,-0.938 0.785,-1.692 1.737,-1.687 0.949,0.006 1.714,0.772 1.707,1.712 -0.007,0.941 -0.777,1.691 -1.731,1.687 m -6.675,-3.399 c 0.951,-0.002 1.721,0.756 1.724,1.695 0.002,0.939 -0.765,1.701 -1.716,1.704 -0.947,0.003 -1.727,-0.763 -1.73,-1.696 -0.002,-0.935 0.772,-1.701 1.722,-1.703 m 19.129,3.399 c -0.954,0.014 -1.73,-0.728 -1.748,-1.671 -0.018,-0.94 0.739,-1.715 1.69,-1.728 0.957,-0.013 1.727,0.726 1.742,1.67 0.015,0.949 -0.732,1.715 -1.684,1.729 m -3.911,1.989 h -15.722 c 0.012,-0.267 0.022,-0.488 0.033,-0.719 h 15.689 z m 9.264,7.65 v -10.528 c 0.902,-0.107 1.558,-0.164 2.124,0.825 1.024,1.787 3.667,1.682 4.793,-0.054 0.601,-0.926 0.781,-0.992 2.01,-0.704 v 1.114 c -0.394,0.364 -0.672,0.621 -0.95,0.879 0.286,0.288 0.573,0.577 0.926,0.933 v 3.59 c -1.597,0 -3.13,-0.04 -4.658,0.027 -0.413,0.018 -0.985,0.253 -1.189,0.575 -0.935,1.473 -0.017,3.084 1.691,3.085 0.513,0 1.025,0 1.537,0 -0.003,0.086 -0.007,0.172 -0.01,0.258 z m 1.303,-11.783 h -3.746 c -0.077,-0.204 -0.147,-0.398 -0.224,-0.588 -0.466,-1.15 -1.508,-1.879 -2.695,-1.891 -1.202,-0.011 -2.297,0.741 -2.747,1.928 -0.14,0.368 -0.227,0.725 -0.745,0.524 -0.023,-0.042 -0.066,-0.086 -0.07,-0.133 -0.116,-1.474 -0.115,-1.474 -1.636,-1.474 -0.875,0 -1.749,-0.002 -2.623,10e-4 -1.123,0.003 -1.134,0.023 -1.235,1.133 -0.016,0.175 -0.15,0.34 -0.229,0.51 -0.112,-0.117 -0.279,-0.214 -0.328,-0.353 -0.479,-1.349 -1.424,-2.093 -2.851,-2.126 -1.309,-0.03 -2.282,0.791 -2.823,2.264 -0.018,0.05 -0.042,0.097 -0.085,0.197 -0.231,0.012 -0.487,0.024 -0.793,0.04 -0.448,-1.531 -1.394,-2.537 -3.05,-2.489 -1.546,0.045 -2.429,1.02 -2.841,2.483 -0.765,0 -1.506,0.02 -2.246,-0.006 -0.656,-0.024 -0.913,0.272 -0.884,0.908 0.024,0.529 0.018,1.06 0.001,1.589 -0.019,0.612 0.272,0.862 0.868,0.855 1.11,-0.014 2.22,-0.004 3.391,-0.004 0.027,0.258 0.051,0.479 0.085,0.81 -1.161,0 -2.266,0.024 -3.37,-0.009 -0.723,-0.021 -0.984,0.274 -0.98,0.989 0.022,3.259 0.022,6.518 0,9.777 -0.005,0.721 0.27,1.016 0.984,0.99 0.768,-0.029 1.537,-0.009 2.305,-0.007 0.437,0.002 0.896,-0.117 0.804,-0.613 -0.045,-0.246 -0.519,-0.538 -0.831,-0.582 -0.643,-0.09 -1.307,-0.027 -2.007,-0.027 v -9.249 h 24.343 v 9.249 h -0.931 c -6.12,0 -12.241,-10e-4 -18.361,0 -0.239,0 -0.512,-0.068 -0.707,0.026 -0.249,0.12 -0.435,0.372 -0.648,0.567 0.227,0.209 0.432,0.453 0.689,0.611 0.135,0.084 0.362,0.018 0.547,0.018 6.465,0.001 12.93,0.001 19.395,0 1.218,0 1.285,-0.069 1.285,-1.319 10e-4,-3.047 10e-4,-6.094 0,-9.141 0,-1.231 -0.051,-1.28 -1.316,-1.28 -0.976,-10e-4 -1.951,0 -2.973,0 v -0.769 h 6.649 v 1.311 c -0.061,0.033 -0.104,0.076 -0.149,0.078 -1.479,0.068 -1.479,0.067 -1.48,1.532 0,1.06 -0.002,2.119 10e-4,3.179 0.003,1.118 0.06,1.174 1.154,1.193 0.133,0.002 0.264,0.011 0.524,0.024 0,0.464 0.017,0.928 -0.004,1.392 -0.028,0.623 0.22,0.943 0.873,0.941 2.225,-0.009 4.452,0.016 6.676,-0.026 0.312,-0.006 0.699,-0.242 0.913,-0.49 0.896,-1.045 1.761,-2.12 2.589,-3.219 0.219,-0.291 0.375,-0.708 0.38,-1.069 0.033,-2.411 -0.003,-4.823 0.029,-7.233 0.01,-0.772 -0.29,-1.056 -1.037,-1.004 -0.553,0.038 -1.111,0.007 -1.508,0.007 -0.538,-0.713 -0.966,-1.362 -1.481,-1.931 -0.286,-0.317 -0.745,-0.51 -1.09,-0.027 -0.326,0.456 0.034,0.701 0.361,0.962 0.897,0.715 1.019,1.791 0.315,2.565 -0.681,0.748 -1.862,0.746 -2.538,-0.004 -0.701,-0.777 -0.577,-1.885 0.325,-2.561 0.358,-0.268 0.652,-0.548 0.362,-0.97 -0.33,-0.479 -0.797,-0.288 -1.091,0.032 -0.506,0.551 -0.93,1.177 -1.495,1.909"
         style="fill:#0a2240;fill-opacity:1;fill-rule:nonzero;stroke:none"
         id="path4404" />
      <path
         d="m 475.0984,551.6027 c 0,0.924 -0.048,1.852 0.027,2.769 0.025,0.301 0.332,0.77 0.579,0.82 0.507,0.103 0.614,-0.364 0.615,-0.792 0.002,-1.901 0.002,-3.801 0,-5.702 -10e-4,-0.433 -0.124,-0.891 -0.628,-0.776 -0.248,0.057 -0.543,0.529 -0.566,0.832 -0.073,0.945 -0.027,1.899 -0.027,2.849"
         style="fill:#0a2240;fill-opacity:1;fill-rule:nonzero;stroke:none"
         id="path4406" />
      <path
         d="m 461.2275,551.5259 c 0,-0.924 0.047,-1.851 -0.026,-2.769 -0.025,-0.305 -0.322,-0.793 -0.559,-0.835 -0.572,-0.102 -0.632,0.408 -0.632,0.854 -0.003,1.874 -0.003,3.747 0,5.621 0.001,0.426 0.083,0.837 0.62,0.826 0.531,-0.011 0.599,-0.418 0.598,-0.847 -0.003,-0.95 -10e-4,-1.9 -10e-4,-2.85"
         style="fill:#0a2240;fill-opacity:1;fill-rule:nonzero;stroke:none"
         id="path4408" />
      <path
         d="m 463.7899,551.6489 c 0,0.924 0.002,1.847 -10e-4,2.771 -0.001,0.441 0.122,0.876 0.629,0.774 0.235,-0.047 0.548,-0.492 0.555,-0.763 0.048,-1.899 0.028,-3.799 0.025,-5.699 -0.001,-0.417 -0.056,-0.841 -0.601,-0.842 -0.537,-10e-4 -0.609,0.399 -0.608,0.83 0.003,0.976 10e-4,1.953 10e-4,2.929"
         style="fill:#0a2240;fill-opacity:1;fill-rule:nonzero;stroke:none"
         id="path4410" />
      <path
         d="m 472.5321,551.5265 c 0,-0.95 0.042,-1.902 -0.026,-2.847 -0.02,-0.278 -0.314,-0.717 -0.546,-0.763 -0.522,-0.105 -0.619,0.35 -0.619,0.78 -0.002,1.899 -0.002,3.798 0,5.697 0,0.421 0.058,0.843 0.605,0.831 0.533,-0.013 0.591,-0.421 0.588,-0.849 -0.006,-0.95 -0.002,-1.899 -0.002,-2.849"
         style="fill:#0a2240;fill-opacity:1;fill-rule:nonzero;stroke:none"
         id="path4412" />
      <path
         d="m 468.7469,551.5669 c 0,-0.98 -10e-4,-1.961 0.001,-2.941 10e-4,-0.42 -0.133,-0.812 -0.605,-0.711 -0.227,0.048 -0.533,0.444 -0.539,0.688 -0.044,1.96 -0.046,3.922 0.003,5.881 0.006,0.255 0.381,0.5 0.585,0.749 0.185,-0.242 0.513,-0.474 0.529,-0.727 0.063,-0.976 0.026,-1.959 0.026,-2.939"
         style="fill:#0a2240;fill-opacity:1;fill-rule:nonzero;stroke:none"
         id="path4414" />
      <path
         d="m 478.8871,551.5334 c 0,0.98 -0.043,1.964 0.028,2.939 0.019,0.266 0.378,0.507 0.582,0.76 0.19,-0.238 0.541,-0.472 0.546,-0.714 0.045,-1.986 0.045,-3.974 -0.002,-5.96 -0.005,-0.231 -0.378,-0.453 -0.58,-0.679 -0.191,0.238 -0.531,0.466 -0.548,0.715 -0.064,0.976 -0.026,1.959 -0.026,2.939"
         style="fill:#0a2240;fill-opacity:1;fill-rule:nonzero;stroke:none"
         id="path4416" />
      <path
         d="m 492.5136,541.987 c -0.404,-0.311 -0.634,-0.624 -0.872,-0.63 -0.191,-0.005 -0.57,0.388 -0.546,0.56 0.036,0.25 0.323,0.574 0.569,0.647 0.164,0.049 0.441,-0.285 0.849,-0.577"
         style="fill:#0a2240;fill-opacity:1;fill-rule:nonzero;stroke:none"
         id="path4418" />
      <path
         d="m 482.6607,541.9596 c -0.413,-0.298 -0.654,-0.604 -0.889,-0.601 -0.194,0.003 -0.559,0.403 -0.531,0.574 0.042,0.249 0.338,0.566 0.585,0.632 0.164,0.045 0.433,-0.298 0.835,-0.605"
         style="fill:#0a2240;fill-opacity:1;fill-rule:nonzero;stroke:none"
         id="path4420" />
      <path
         d="m 463.5684,541.9698 c -0.397,-0.311 -0.655,-0.654 -0.827,-0.615 -0.249,0.057 -0.562,0.367 -0.605,0.611 -0.031,0.176 0.328,0.587 0.524,0.594 0.238,0.009 0.487,-0.297 0.908,-0.59"
         style="fill:#0a2240;fill-opacity:1;fill-rule:nonzero;stroke:none"
         id="path4422" />
      <path
         d="m 469.4512,541.0073 c -0.328,0.432 -0.649,0.67 -0.626,0.869 0.03,0.258 0.332,0.486 0.517,0.726 0.21,-0.19 0.565,-0.362 0.591,-0.575 0.03,-0.245 -0.231,-0.525 -0.482,-1.02"
         style="fill:#0a2240;fill-opacity:1;fill-rule:nonzero;stroke:none"
         id="path4424" />
    </g>
  </g>
</svg>
